<svg width="1443" height="247" viewBox="0 0 1443 247" fill="none" xmlns="http://www.w3.org/2000/svg">
<path d="M783.178 63.9707L715.604 82.5102L533.253 88.0732L620.263 67.6794L783.178 63.9707Z" fill="#001AFF"/>
<path d="M620.263 67.6795L648.303 7.42133L793.36 0L783.177 63.9708L620.263 67.6795Z" fill="#E42320"/>
<path d="M620.985 183.518C624.511 155.405 610.616 130.507 589.95 127.907C569.284 125.306 549.672 145.989 546.146 174.102C542.62 202.215 556.515 227.113 577.181 229.713C597.847 232.313 617.459 211.631 620.985 183.518Z" fill="black"/>
<path d="M737.695 159.243C741.221 131.13 731.159 106.714 715.221 104.709C699.283 102.704 683.505 123.868 679.978 151.981C676.452 180.095 686.514 204.51 702.452 206.516C718.39 208.521 734.169 187.356 737.695 159.243Z" fill="black"/>
<path d="M533.253 88.0733L537.569 162.485L699.871 171.511L715.604 82.5103L533.253 88.0733Z" fill="#E42320"/>
<path d="M869.262 16.6891L889.627 83.4375L885.925 148.335L699.871 171.511L715.604 82.5103L783.178 63.9708L793.361 0L869.262 16.6891Z" fill="#001AFF"/>
<path d="M789.858 195.92C793.384 167.807 779.489 142.909 758.823 140.309C738.157 137.709 718.546 158.391 715.02 186.504C711.494 214.617 725.388 239.516 746.054 242.116C766.72 244.716 786.332 224.033 789.858 195.92Z" fill="black"/>
<path d="M890.432 168.449C893.507 143.93 884.523 122.608 870.364 120.827C856.206 119.046 842.236 137.479 839.16 161.999C836.085 186.518 845.069 207.84 859.228 209.621C873.386 211.402 887.356 192.969 890.432 168.449Z" fill="black"/>
<path d="M554.264 140.882C560.362 140.882 565.305 133.682 565.305 124.8C565.305 115.917 560.362 108.717 554.264 108.717C548.166 108.717 543.223 115.917 543.223 124.8C543.223 133.682 548.166 140.882 554.264 140.882Z" fill="white"/>
<path d="M666.537 145.744C673.078 145.744 678.381 138.019 678.381 128.489C678.381 118.959 673.078 111.233 666.537 111.233C659.995 111.233 654.692 118.959 654.692 128.489C654.692 138.019 659.995 145.744 666.537 145.744Z" fill="white"/>
<path d="M623.875 67.628L650.278 14.3038L779.756 9.18848L771.661 64.2165L623.875 67.628Z" fill="black"/>
<path d="M800.019 11.8511L792.53 63.0436L839.085 66.9583L833.875 17.7232L800.019 11.8511Z" fill="black"/>
<path d="M841.49 19.2925L849.829 68.5871L881.406 75.109L864.387 24.2731L841.49 19.2925Z" fill="black"/>
<path d="M525.503 150.614L524 166.431L681.91 173.963L685.669 154.382L525.503 150.614Z" fill="#001AFF"/>
<path d="M656.101 94.9202V104.37L685.399 103.871V92.9312L656.101 94.9202Z" fill="#001AFF"/>
<path d="M542.376 95.0308L541.45 102.436L565.337 103.546L565.903 95.0308H542.376Z" fill="#001AFF"/>
<path d="M582.653 114.383L583.088 136.29L632.958 136.73L634.707 113.947L582.653 114.383Z" fill="white"/>
<path d="M586.806 118L587.028 132.462H591.918L589.916 124.007L595.027 131.571H597.472L597.25 118H593.915V123.559L589.03 118H586.806Z" fill="black"/>
<path d="M600.269 118.151L600.443 133.025L604.336 131.785L603.098 117.62L600.269 118.151Z" fill="black"/>
<path d="M606.1 118.682L608.929 131.785H613.352L617.062 119.038L612.996 118.682L611.259 127.193L608.755 118.329L606.1 118.682Z" fill="black"/>
<path d="M617.327 131.753L621.501 118.218H626.47L627.862 131.357L624.88 131.753L624.484 128.568L621.901 128.37L620.112 131.753H617.327Z" fill="black"/>
<path d="M623.091 122.315L622.439 125.057L624.191 125.584" fill="white"/>
<path d="M1074.8 212.113C1095.97 212.113 1113.13 191.572 1113.13 166.233C1113.13 140.895 1095.97 120.354 1074.8 120.354C1053.64 120.354 1036.48 140.895 1036.48 166.233C1036.48 191.572 1053.64 212.113 1074.8 212.113Z" fill="black"/>
<path d="M1169.48 41.4654L1110.81 93.2928L1019.19 118.981L1007 149.177L1171.29 147.374L1219.58 143.317L1221.38 189.285L1381.16 170.809L1404.62 127.091L1438.93 123.939L1431.71 86.9826L1376.64 36.9581L1285.47 32L1169.48 41.4654Z" fill="#FE0000"/>
<path d="M1007 149.177L1012.24 169.609L1019.69 171.558L1024.65 187.669L1196.68 192.349L1219.58 143.317L1171.29 147.374L1007 149.177Z" fill="black"/>
<path d="M1438.93 123.939L1443 125.688L1440.83 138.16L1412.59 165.271L1381.16 170.809L1404.62 127.091L1438.93 123.939Z" fill="black"/>
<path d="M1230.57 218C1251.74 218 1268.9 197.459 1268.9 172.12C1268.9 146.781 1251.74 126.24 1230.57 126.24C1209.41 126.24 1192.25 146.781 1192.25 172.12C1192.25 197.459 1209.41 218 1230.57 218Z" fill="black"/>
<path d="M1401.29 191.502C1415.56 191.502 1427.13 174.806 1427.13 154.21C1427.13 133.614 1415.56 116.917 1401.29 116.917C1387.01 116.917 1375.44 133.614 1375.44 154.21C1375.44 174.806 1387.01 191.502 1401.29 191.502Z" fill="black"/>
<path d="M1281 36.3784L1264.92 87.9043L1115.57 91.0085L1170.8 43.885L1281 36.3784Z" fill="black"/>
<path d="M1290.85 39.2255L1276.59 95.4111L1339.86 92.0459L1322.49 37.6733L1290.85 39.2255Z" fill="black"/>
<path d="M1327.67 38.4492L1345.05 91.0087L1389.65 87.1249L1360.09 40.7808L1327.67 38.4492Z" fill="black"/>
<path d="M1363.98 41.0386L1395.61 86.61L1415.84 84.2784L1414.8 73.9217L1377.72 42.8517L1363.98 41.0386Z" fill="black"/>
<path d="M1017.42 123.085L1007 149.177L1046.59 148.814L1050.16 121.974L1017.42 123.085Z" fill="white"/>
<path d="M1124.11 123.302L1116.07 147.984L1170.15 147.462L1170.16 121.804L1124.11 123.302Z" fill="white"/>
<path d="M1043.75 154.142L1045.3 170.398L1112.83 171.466L1110.67 154.409L1043.75 154.142Z" fill="white"/>
<path d="M1049.19 129.189L1122.5 128.24L1116.16 147.987L1046.59 148.814L1049.19 129.189Z" fill="#3C3C3B"/>
<path d="M1048.27 156.826L1048.79 167.426L1054.16 165.383L1052.88 157.08L1048.27 156.826Z" fill="black"/>
<path d="M1055.13 156.406L1056.46 166.915L1062.99 167.044L1062.73 164.746H1058.25V161.937H1060.56V160.147L1058.13 159.89L1058 158.487L1061.45 158.741V156.955L1055.13 156.406Z" fill="black"/>
<path d="M1063.11 157.08L1065.55 166.661L1068.61 166.915L1070.28 157.592L1067.98 157.463L1067.08 163.468L1065.16 157.209L1063.11 157.08Z" fill="black"/>
<path d="M1072.07 157.846L1073.6 161.936L1073.35 168.067L1075.65 167.938L1075.39 162.061L1077.7 158.486L1075.78 157.72L1074.63 160.018L1073.86 157.208L1072.07 157.846Z" fill="black"/>
<path d="M1080.25 158.229L1077.57 168.067L1080 167.938L1080.25 165.383L1082.94 165.512V167.81H1085.63L1082.56 157.592L1080.25 158.229Z" fill="black"/>
<path d="M1084.99 157.846V159.635L1087.55 159.764L1087.16 167.684L1089.34 167.555L1089.59 160.018L1091.77 159.889L1092.02 157.463L1084.99 157.846Z" fill="black"/>
<path d="M1093.94 157.591L1092.41 168.192L1095.22 167.426L1094.71 164.234L1096.76 167.172H1099.06L1095.35 162.062L1099.19 158.486L1097.01 157.72L1095.09 159.381V156.697L1093.94 157.591Z" fill="black"/>
<path d="M1101.87 158.229L1100.98 168.067H1103.02L1103.15 165.383H1104.82L1106.1 168.192L1108.78 168.067L1104.43 158.104L1101.87 158.229Z" fill="black"/>
<path d="M1050.33 159.211V164.678L1052.16 163.766L1051.7 160.032L1050.33 159.211Z" fill="white"/>
<path d="M1081.35 160.669L1080.98 163.038H1082.62L1081.35 160.669Z" fill="white"/>
<path d="M1103.24 160.577L1102.97 163.221H1104.06L1103.24 160.577Z" fill="white"/>
<path d="M88.7834 183.292C91.854 164.162 80.6632 146.457 63.7882 143.747C46.9131 141.038 30.7441 154.35 27.6735 173.48C24.6029 192.611 35.7937 210.316 52.6687 213.025C69.5438 215.734 85.7129 202.423 88.7834 183.292Z" fill="black"/>
<path d="M9.24447 198.721C9.24447 198.721 -12.3701 154.261 10.5019 118.015C13.192 113.749 99.5681 85.0631 99.5681 85.0631L158.946 31.1056L281.671 21L340 27.4186L373.83 67.6731L397.161 70.0054L412.91 104.427L411.16 141.181L399.493 155.765L211.006 202.748L9.23701 198.725L9.24447 198.721Z" fill="#0025FF"/>
<path d="M159.692 33.6877L106.142 83.9545L263.492 84.8501L278.152 29.2021L159.692 33.6877Z" fill="black"/>
<path d="M306.117 27.6016L324.661 74.7299L275.794 82.8017L285.831 30.2213L306.117 27.6016Z" fill="black"/>
<path d="M312.441 27.1646L331.642 75.1662L369.379 69.7103L337.53 28.911L312.441 27.1646Z" fill="black"/>
<path d="M269.42 182.573C273.447 157.484 264.07 135.116 248.477 132.612C232.884 130.109 216.979 148.418 212.952 173.506C208.925 198.595 218.301 220.963 233.894 223.467C249.488 225.97 265.393 207.662 269.42 182.573Z" fill="black"/>
<path d="M403.692 154.374C406.762 135.244 400.056 118.259 388.713 116.438C377.37 114.617 365.686 128.649 362.615 147.779C359.545 166.91 366.251 183.894 377.594 185.716C388.937 187.537 400.621 173.505 403.692 154.374Z" fill="black"/>
<path d="M134.182 147.794C134.182 147.794 140.958 114.223 184.31 115.186C199.447 115.522 188.679 145.783 188.679 145.783L134.178 147.794H134.182Z" fill="white"/>
<path d="M21.0719 145.305C21.0719 145.305 19.919 113.73 15.8819 114.663C9.28149 116.186 1.62517 125.773 2.69974 142.958C2.89376 146.085 21.0719 145.305 21.0719 145.305Z" fill="white"/>
<path d="M34.6123 160.03L34.825 176.036L99.6873 177.745L99.9 162.165L34.6123 160.03Z" fill="white"/>
<path d="M42.8844 162.773L40.7688 173.931L44.5298 174.166L44.2947 169.703H47.6975V163.479L42.8844 162.773Z" fill="black"/>
<path d="M50.5182 162.657L49.9287 174.285H52.7495V169.233L54.7456 174.166L59.2081 174.401L54.6262 168.412H56.5067L57.3276 162.892L50.5182 162.657Z" fill="black"/>
<path d="M60.2642 163.128L60.3836 174.286H62.8498L62.3797 163.008L60.2642 163.128Z" fill="black"/>
<path d="M65.3162 163.479V173.11L70.7151 173.931L71.7748 163.829L65.3162 163.479Z" fill="black"/>
<path d="M74.7112 163.949L73.3008 174.286L76.7073 174.051L76.4723 168.998L78.7035 174.051L82.4608 174.521L78.349 168.293L81.0504 166.766L80.6996 163.949H74.7112Z" fill="black"/>
<path d="M84.3374 174.167L84.9269 163.714L89.6244 163.83L92.7959 173.816H89.7401L89.6244 170.289H87.7439L87.0388 174.637L84.3374 174.167Z" fill="black"/>
<path d="M66.76 165.71L67.0772 170.376H68.5625L69.197 166.24L66.76 165.71Z" fill="white"/>
<path d="M51.8093 165.18V167.3L54.6754 166.453V164.65L51.8093 165.18Z" fill="white"/>
<path d="M44.1793 164.755L44.071 167.83L45.7691 167.726L45.8736 165.393L44.1793 164.755Z" fill="white"/>
<path d="M87.0051 166.028V168.256L89.1286 168.36L88.2777 165.498L87.0051 166.028Z" fill="white"/>
<path d="M76.0879 165.393V166.77L78.7376 165.923L76.0879 165.393Z" fill="white"/>
<path d="M32.0342 129.938L71.8903 126.441L132.723 129.938L122.235 145.324L66.8533 152.526L29.941 143.924C29.941 143.924 26.4449 129.938 32.0379 129.938H32.0342Z" fill="#3C3C3B"/>
</svg>
