<svg width="2514" height="247" viewBox="0 0 2514 247" fill="none" xmlns="http://www.w3.org/2000/svg">
<path d="M1330.18 63.9707L1262.6 82.5102L1080.25 88.0732L1167.26 67.6794L1330.18 63.9707Z" fill="#001AFF"/>
<path d="M1167.26 67.6795L1195.3 7.42133L1340.36 0L1330.18 63.9708L1167.26 67.6795Z" fill="#E42320"/>
<path d="M1167.98 183.518C1171.51 155.405 1157.62 130.507 1136.95 127.907C1116.28 125.306 1096.67 145.989 1093.15 174.102C1089.62 202.215 1103.52 227.113 1124.18 229.713C1144.85 232.313 1164.46 211.631 1167.98 183.518Z" fill="black"/>
<path d="M1284.69 159.243C1288.22 131.13 1278.16 106.714 1262.22 104.709C1246.28 102.704 1230.5 123.868 1226.98 151.981C1223.45 180.095 1233.51 204.51 1249.45 206.516C1265.39 208.521 1281.17 187.356 1284.69 159.243Z" fill="black"/>
<path d="M1080.25 88.0733L1084.57 162.485L1246.87 171.511L1262.6 82.5103L1080.25 88.0733Z" fill="#E42320"/>
<path d="M1416.26 16.6891L1436.63 83.4375L1432.92 148.335L1246.87 171.511L1262.6 82.5103L1330.18 63.9708L1340.36 0L1416.26 16.6891Z" fill="#001AFF"/>
<path d="M1336.86 195.92C1340.38 167.807 1326.49 142.909 1305.82 140.309C1285.16 137.709 1265.55 158.391 1262.02 186.504C1258.49 214.617 1272.39 239.516 1293.05 242.116C1313.72 244.716 1333.33 224.033 1336.86 195.92Z" fill="black"/>
<path d="M1437.43 168.449C1440.51 143.93 1431.52 122.608 1417.36 120.827C1403.21 119.046 1389.24 137.479 1386.16 161.999C1383.09 186.518 1392.07 207.84 1406.23 209.621C1420.39 211.402 1434.36 192.969 1437.43 168.449Z" fill="black"/>
<path d="M1101.26 140.882C1107.36 140.882 1112.31 133.682 1112.31 124.8C1112.31 115.917 1107.36 108.717 1101.26 108.717C1095.17 108.717 1090.22 115.917 1090.22 124.8C1090.22 133.682 1095.17 140.882 1101.26 140.882Z" fill="white"/>
<path d="M1213.54 145.744C1220.08 145.744 1225.38 138.019 1225.38 128.489C1225.38 118.959 1220.08 111.233 1213.54 111.233C1207 111.233 1201.69 118.959 1201.69 128.489C1201.69 138.019 1207 145.744 1213.54 145.744Z" fill="white"/>
<path d="M1170.87 67.628L1197.28 14.3038L1326.76 9.18848L1318.66 64.2165L1170.87 67.628Z" fill="black"/>
<path d="M1347.02 11.8511L1339.53 63.0436L1386.08 66.9583L1380.87 17.7232L1347.02 11.8511Z" fill="black"/>
<path d="M1388.49 19.2925L1396.83 68.5871L1428.41 75.109L1411.39 24.2731L1388.49 19.2925Z" fill="black"/>
<path d="M1072.5 150.614L1071 166.431L1228.91 173.963L1232.67 154.382L1072.5 150.614Z" fill="#001AFF"/>
<path d="M1203.1 94.9202V104.37L1232.4 103.871V92.9312L1203.1 94.9202Z" fill="#001AFF"/>
<path d="M1089.38 95.0308L1088.45 102.436L1112.34 103.546L1112.9 95.0308H1089.38Z" fill="#001AFF"/>
<path d="M1129.65 114.383L1130.09 136.29L1179.96 136.73L1181.71 113.947L1129.65 114.383Z" fill="white"/>
<path d="M1133.81 118L1134.03 132.462H1138.92L1136.92 124.007L1142.03 131.571H1144.47L1144.25 118H1140.92V123.559L1136.03 118H1133.81Z" fill="black"/>
<path d="M1147.27 118.151L1147.44 133.025L1151.34 131.785L1150.1 117.62L1147.27 118.151Z" fill="black"/>
<path d="M1153.1 118.682L1155.93 131.785H1160.35L1164.06 119.038L1160 118.682L1158.26 127.193L1155.75 118.329L1153.1 118.682Z" fill="black"/>
<path d="M1164.33 131.753L1168.5 118.218H1173.47L1174.86 131.357L1171.88 131.753L1171.48 128.568L1168.9 128.37L1167.11 131.753H1164.33Z" fill="black"/>
<path d="M1170.09 122.315L1169.44 125.057L1171.19 125.584" fill="white"/>
<path d="M1621.8 212.113C1642.97 212.113 1660.13 191.572 1660.13 166.233C1660.13 140.895 1642.97 120.354 1621.8 120.354C1600.64 120.354 1583.48 140.895 1583.48 166.233C1583.48 191.572 1600.64 212.113 1621.8 212.113Z" fill="black"/>
<path d="M1716.48 41.4654L1657.81 93.2928L1566.19 118.981L1554 149.177L1718.29 147.374L1766.58 143.317L1768.38 189.285L1928.16 170.809L1951.62 127.091L1985.93 123.939L1978.71 86.9826L1923.64 36.9581L1832.47 32L1716.48 41.4654Z" fill="#FE0000"/>
<path d="M1554 149.177L1559.24 169.609L1566.69 171.558L1571.65 187.669L1743.68 192.349L1766.58 143.317L1718.29 147.374L1554 149.177Z" fill="black"/>
<path d="M1985.93 123.939L1990 125.688L1987.83 138.16L1959.59 165.271L1928.16 170.809L1951.62 127.091L1985.93 123.939Z" fill="black"/>
<path d="M1777.57 218C1798.74 218 1815.9 197.459 1815.9 172.12C1815.9 146.781 1798.74 126.24 1777.57 126.24C1756.41 126.24 1739.25 146.781 1739.25 172.12C1739.25 197.459 1756.41 218 1777.57 218Z" fill="black"/>
<path d="M1948.29 191.502C1962.56 191.502 1974.13 174.806 1974.13 154.21C1974.13 133.614 1962.56 116.917 1948.29 116.917C1934.01 116.917 1922.44 133.614 1922.44 154.21C1922.44 174.806 1934.01 191.502 1948.29 191.502Z" fill="black"/>
<path d="M1828 36.3784L1811.92 87.9043L1662.57 91.0085L1717.8 43.885L1828 36.3784Z" fill="black"/>
<path d="M1837.85 39.2255L1823.59 95.4111L1886.86 92.0459L1869.49 37.6733L1837.85 39.2255Z" fill="black"/>
<path d="M1874.67 38.4492L1892.05 91.0087L1936.65 87.1249L1907.09 40.7808L1874.67 38.4492Z" fill="black"/>
<path d="M1910.98 41.0386L1942.61 86.61L1962.84 84.2784L1961.8 73.9217L1924.72 42.8517L1910.98 41.0386Z" fill="black"/>
<path d="M1564.42 123.085L1554 149.177L1593.59 148.814L1597.16 121.974L1564.42 123.085Z" fill="white"/>
<path d="M1671.11 123.302L1663.07 147.984L1717.15 147.462L1717.16 121.804L1671.11 123.302Z" fill="white"/>
<path d="M1590.75 154.142L1592.3 170.398L1659.83 171.466L1657.67 154.409L1590.75 154.142Z" fill="white"/>
<path d="M1596.19 129.189L1669.5 128.24L1663.16 147.987L1593.59 148.814L1596.19 129.189Z" fill="#3C3C3B"/>
<path d="M1595.27 156.826L1595.79 167.426L1601.16 165.383L1599.88 157.08L1595.27 156.826Z" fill="black"/>
<path d="M1602.13 156.406L1603.46 166.915L1609.99 167.044L1609.73 164.746H1605.25V161.937H1607.56V160.147L1605.13 159.89L1605 158.487L1608.45 158.741V156.955L1602.13 156.406Z" fill="black"/>
<path d="M1610.11 157.08L1612.55 166.661L1615.61 166.915L1617.28 157.592L1614.98 157.463L1614.08 163.468L1612.16 157.209L1610.11 157.08Z" fill="black"/>
<path d="M1619.07 157.846L1620.6 161.936L1620.35 168.067L1622.65 167.938L1622.39 162.061L1624.7 158.486L1622.78 157.72L1621.63 160.018L1620.86 157.208L1619.07 157.846Z" fill="black"/>
<path d="M1627.25 158.229L1624.57 168.067L1627 167.938L1627.25 165.383L1629.94 165.512V167.81H1632.63L1629.56 157.592L1627.25 158.229Z" fill="black"/>
<path d="M1631.99 157.846V159.635L1634.55 159.764L1634.16 167.684L1636.34 167.555L1636.59 160.018L1638.77 159.889L1639.02 157.463L1631.99 157.846Z" fill="black"/>
<path d="M1640.94 157.591L1639.41 168.192L1642.22 167.426L1641.71 164.234L1643.76 167.172H1646.06L1642.35 162.062L1646.19 158.486L1644.01 157.72L1642.09 159.381V156.697L1640.94 157.591Z" fill="black"/>
<path d="M1648.87 158.229L1647.98 168.067H1650.02L1650.15 165.383H1651.82L1653.1 168.192L1655.78 168.067L1651.43 158.104L1648.87 158.229Z" fill="black"/>
<path d="M1597.33 159.211V164.678L1599.16 163.766L1598.7 160.032L1597.33 159.211Z" fill="white"/>
<path d="M1628.35 160.669L1627.98 163.038H1629.62L1628.35 160.669Z" fill="white"/>
<path d="M1650.24 160.577L1649.97 163.221H1651.06L1650.24 160.577Z" fill="white"/>
<path d="M635.783 183.292C638.854 164.162 627.663 146.457 610.788 143.747C593.913 141.038 577.744 154.35 574.673 173.48C571.603 192.611 582.794 210.316 599.669 213.025C616.544 215.734 632.713 202.423 635.783 183.292Z" fill="black"/>
<path d="M556.244 198.721C556.244 198.721 534.63 154.261 557.502 118.015C560.192 113.749 646.568 85.0631 646.568 85.0631L705.946 31.1056L828.671 21L887 27.4186L920.83 67.6731L944.161 70.0054L959.91 104.427L958.16 141.181L946.493 155.765L758.006 202.748L556.237 198.725L556.244 198.721Z" fill="#0025FF"/>
<path d="M706.692 33.6877L653.142 83.9545L810.492 84.8501L825.152 29.2021L706.692 33.6877Z" fill="black"/>
<path d="M853.117 27.6016L871.661 74.7299L822.794 82.8017L832.831 30.2213L853.117 27.6016Z" fill="black"/>
<path d="M859.441 27.1646L878.642 75.1662L916.379 69.7103L884.53 28.911L859.441 27.1646Z" fill="black"/>
<path d="M816.42 182.573C820.447 157.484 811.07 135.116 795.477 132.612C779.884 130.109 763.979 148.418 759.952 173.506C755.925 198.595 765.301 220.963 780.894 223.467C796.488 225.97 812.393 207.662 816.42 182.573Z" fill="black"/>
<path d="M950.692 154.374C953.762 135.244 947.056 118.259 935.713 116.438C924.37 114.617 912.686 128.649 909.615 147.779C906.545 166.91 913.251 183.894 924.594 185.716C935.937 187.537 947.621 173.505 950.692 154.374Z" fill="black"/>
<path d="M681.182 147.794C681.182 147.794 687.958 114.223 731.31 115.186C746.447 115.522 735.679 145.783 735.679 145.783L681.178 147.794H681.182Z" fill="white"/>
<path d="M568.072 145.305C568.072 145.305 566.919 113.73 562.882 114.663C556.281 116.186 548.625 125.773 549.7 142.958C549.894 146.085 568.072 145.305 568.072 145.305Z" fill="white"/>
<path d="M581.612 160.03L581.825 176.036L646.687 177.745L646.9 162.165L581.612 160.03Z" fill="white"/>
<path d="M589.884 162.773L587.769 173.931L591.53 174.166L591.295 169.703H594.698V163.479L589.884 162.773Z" fill="black"/>
<path d="M597.518 162.657L596.929 174.285H599.749V169.233L601.746 174.166L606.208 174.401L601.626 168.412H603.507L604.328 162.892L597.518 162.657Z" fill="black"/>
<path d="M607.264 163.128L607.384 174.286H609.85L609.38 163.008L607.264 163.128Z" fill="black"/>
<path d="M612.316 163.479V173.11L617.715 173.931L618.775 163.829L612.316 163.479Z" fill="black"/>
<path d="M621.711 163.949L620.301 174.286L623.707 174.051L623.472 168.998L625.703 174.051L629.461 174.521L625.349 168.293L628.05 166.766L627.7 163.949H621.711Z" fill="black"/>
<path d="M631.337 174.167L631.927 163.714L636.624 163.83L639.796 173.816H636.74L636.624 170.289H634.744L634.039 174.637L631.337 174.167Z" fill="black"/>
<path d="M613.76 165.71L614.077 170.376H615.563L616.197 166.24L613.76 165.71Z" fill="white"/>
<path d="M598.809 165.18V167.3L601.675 166.453V164.65L598.809 165.18Z" fill="white"/>
<path d="M591.179 164.755L591.071 167.83L592.769 167.726L592.874 165.393L591.179 164.755Z" fill="white"/>
<path d="M634.005 166.028V168.256L636.129 168.36L635.278 165.498L634.005 166.028Z" fill="white"/>
<path d="M623.088 165.393V166.77L625.738 165.923L623.088 165.393Z" fill="white"/>
<path d="M579.034 129.938L618.89 126.441L679.723 129.938L669.235 145.324L613.853 152.526L576.941 143.924C576.941 143.924 573.445 129.938 579.038 129.938H579.034Z" fill="#3C3C3B"/>
<path d="M2189.78 177.292C2192.85 158.162 2181.66 140.457 2164.79 137.747C2147.91 135.038 2131.74 148.35 2128.67 167.48C2125.6 186.611 2136.79 204.316 2153.67 207.025C2170.54 209.734 2186.71 196.423 2189.78 177.292Z" fill="black"/>
<path d="M2110.24 192.721C2110.24 192.721 2088.63 148.261 2111.5 112.015C2114.19 107.749 2200.57 79.0631 2200.57 79.0631L2259.95 25.1056L2382.67 15L2441 21.4186L2474.83 61.6731L2498.16 64.0054L2513.91 98.4272L2512.16 135.181L2500.49 149.765L2312.01 196.748L2110.24 192.725L2110.24 192.721Z" fill="#0025FF"/>
<path d="M2260.69 27.6877L2207.14 77.9545L2364.49 78.8501L2379.15 23.2021L2260.69 27.6877Z" fill="black"/>
<path d="M2407.12 21.6016L2425.66 68.7299L2376.79 76.8017L2386.83 24.2213L2407.12 21.6016Z" fill="black"/>
<path d="M2413.44 21.1646L2432.64 69.1662L2470.38 63.7103L2438.53 22.911L2413.44 21.1646Z" fill="black"/>
<path d="M2370.42 176.573C2374.45 151.484 2365.07 129.116 2349.48 126.612C2333.88 124.109 2317.98 142.418 2313.95 167.506C2309.92 192.595 2319.3 214.963 2334.89 217.467C2350.49 219.97 2366.39 201.662 2370.42 176.573Z" fill="black"/>
<path d="M2504.69 148.374C2507.76 129.244 2501.06 112.259 2489.71 110.438C2478.37 108.617 2466.69 122.649 2463.62 141.779C2460.54 160.91 2467.25 177.894 2478.59 179.716C2489.94 181.537 2501.62 167.505 2504.69 148.374Z" fill="black"/>
<path d="M2235.18 141.794C2235.18 141.794 2241.96 108.223 2285.31 109.186C2300.45 109.522 2289.68 139.783 2289.68 139.783L2235.18 141.794H2235.18Z" fill="white"/>
<path d="M2122.07 139.305C2122.07 139.305 2120.92 107.73 2116.88 108.663C2110.28 110.186 2102.63 119.773 2103.7 136.958C2103.89 140.085 2122.07 139.305 2122.07 139.305Z" fill="white"/>
<path d="M2135.61 154.03L2135.82 170.036L2200.69 171.745L2200.9 156.165L2135.61 154.03Z" fill="white"/>
<path d="M2143.88 156.773L2141.77 167.931L2145.53 168.166L2145.29 163.703H2148.7V157.479L2143.88 156.773Z" fill="black"/>
<path d="M2151.52 156.657L2150.93 168.285H2153.75V163.233L2155.75 168.166L2160.21 168.401L2155.63 162.412H2157.51L2158.33 156.892L2151.52 156.657Z" fill="black"/>
<path d="M2161.26 157.128L2161.38 168.286H2163.85L2163.38 157.008L2161.26 157.128Z" fill="black"/>
<path d="M2166.32 157.479V167.11L2171.72 167.931L2172.78 157.829L2166.32 157.479Z" fill="black"/>
<path d="M2175.71 157.949L2174.3 168.286L2177.71 168.051L2177.47 162.998L2179.7 168.051L2183.46 168.521L2179.35 162.293L2182.05 160.766L2181.7 157.949H2175.71Z" fill="black"/>
<path d="M2185.34 168.167L2185.93 157.714L2190.62 157.83L2193.8 167.816H2190.74L2190.62 164.289H2188.74L2188.04 168.637L2185.34 168.167Z" fill="black"/>
<path d="M2167.76 159.71L2168.08 164.376H2169.56L2170.2 160.24L2167.76 159.71Z" fill="white"/>
<path d="M2152.81 159.18V161.3L2155.68 160.453V158.65L2152.81 159.18Z" fill="white"/>
<path d="M2145.18 158.755L2145.07 161.83L2146.77 161.726L2146.87 159.393L2145.18 158.755Z" fill="white"/>
<path d="M2188.01 160.028V162.256L2190.13 162.36L2189.28 159.498L2188.01 160.028Z" fill="white"/>
<path d="M2177.09 159.393V160.77L2179.74 159.923L2177.09 159.393Z" fill="white"/>
<path d="M2133.03 123.938L2172.89 120.441L2233.72 123.938L2223.23 139.324L2167.85 146.526L2130.94 137.924C2130.94 137.924 2127.44 123.938 2133.04 123.938H2133.03Z" fill="#3C3C3B"/>
<path d="M67.8039 218.113C88.9716 218.113 106.131 197.572 106.131 172.233C106.131 146.895 88.9716 126.354 67.8039 126.354C46.6361 126.354 29.4763 146.895 29.4763 172.233C29.4763 197.572 46.6361 218.113 67.8039 218.113Z" fill="black"/>
<path d="M162.481 47.4654L103.806 99.2928L12.1876 124.981L0 155.177L164.286 153.374L212.578 149.317L214.384 195.285L374.156 176.809L397.625 133.091L431.927 129.939L424.705 92.9826L369.642 42.9581L278.471 38L162.481 47.4654Z" fill="#FE0000"/>
<path d="M0 155.177L5.23682 175.609L12.6865 177.558L17.6484 193.669L189.676 198.349L212.578 149.317L164.286 153.374L0 155.177Z" fill="black"/>
<path d="M431.927 129.939L436 131.688L433.828 144.16L405.59 171.271L374.156 176.809L397.625 133.091L431.927 129.939Z" fill="black"/>
<path d="M223.575 224C244.742 224 261.902 203.459 261.902 178.12C261.902 152.781 244.742 132.24 223.575 132.24C202.407 132.24 185.247 152.781 185.247 178.12C185.247 203.459 202.407 224 223.575 224Z" fill="black"/>
<path d="M394.285 197.502C408.561 197.502 420.133 180.806 420.133 160.21C420.133 139.614 408.561 122.917 394.285 122.917C380.01 122.917 368.437 139.614 368.437 160.21C368.437 180.806 380.01 197.502 394.285 197.502Z" fill="black"/>
<path d="M274.001 42.3784L257.924 93.9043L108.568 97.0085L163.797 49.885L274.001 42.3784Z" fill="black"/>
<path d="M283.854 45.2255L269.593 101.411L332.862 98.0459L315.489 43.6733L283.854 45.2255Z" fill="black"/>
<path d="M320.675 44.4492L338.048 97.0087L382.648 93.1249L353.087 46.7808L320.675 44.4492Z" fill="black"/>
<path d="M356.976 47.0386L388.611 92.61L408.835 90.2784L407.797 79.9217L370.718 48.8517L356.976 47.0386Z" fill="black"/>
<path d="M10.4159 129.085L0 155.177L39.5867 154.814L43.1605 127.974L10.4159 129.085Z" fill="white"/>
<path d="M117.111 129.302L109.074 153.984L163.149 153.462L163.163 127.804L117.111 129.302Z" fill="white"/>
<path d="M36.7527 160.142L38.2969 176.398L105.829 177.466L103.671 160.409L36.7527 160.142Z" fill="white"/>
<path d="M42.1898 135.189L115.498 134.24L109.159 153.987L39.5867 154.814L42.1898 135.189Z" fill="#3C3C3B"/>
<path d="M41.2734 162.826L41.7859 173.426L47.1585 171.383L45.879 163.08L41.2734 162.826Z" fill="black"/>
<path d="M48.1326 162.406L49.463 172.915L55.9861 173.044L55.7282 170.746H51.2516V167.937H53.5561V166.147L51.126 165.89L50.997 164.487L54.452 164.741V162.955L48.1326 162.406Z" fill="black"/>
<path d="M56.1116 163.08L58.545 172.661L61.6131 172.915L63.2761 163.592L60.9751 163.463L60.0791 169.468L58.1615 163.209L56.1116 163.08Z" fill="black"/>
<path d="M65.0684 163.846L66.6024 167.936L66.3479 174.067L68.6489 173.938L68.3944 168.061L70.6955 164.486L68.7779 163.72L67.6274 166.018L66.8603 163.208L65.0684 163.846Z" fill="black"/>
<path d="M73.2544 164.229L70.5698 174.067L72.9999 173.938L73.2544 171.383L75.9424 171.512V173.81H78.627L75.5589 163.592L73.2544 164.229Z" fill="black"/>
<path d="M77.9888 163.846V165.635L80.5478 165.764L80.1643 173.684L82.3364 173.555L82.5943 166.018L84.7698 165.889L85.0244 163.463L77.9888 163.846Z" fill="black"/>
<path d="M86.942 163.591L85.408 174.192L88.2215 173.426L87.709 170.234L89.7556 173.172H92.06L88.3505 168.062L92.189 164.486L90.0135 163.72L88.0926 165.381V162.697L86.942 163.591Z" fill="black"/>
<path d="M94.8735 164.229L93.9775 174.067H96.0241L96.153 171.383H97.8161L99.0956 174.192L101.784 174.067L97.4325 164.104L94.8735 164.229Z" fill="black"/>
<path d="M43.3301 165.211V170.678L45.156 169.766L44.6978 166.032L43.3301 165.211Z" fill="white"/>
<path d="M74.3473 166.669L73.9807 169.038H75.6234L74.3473 166.669Z" fill="white"/>
<path d="M96.2381 166.577L95.9666 169.221H97.0594L96.2381 166.577Z" fill="white"/>
</svg>
