<svg width="2912" height="251" viewBox="0 0 2912 251" fill="none" xmlns="http://www.w3.org/2000/svg">
<path d="M1591.78 179.292C1594.85 160.162 1583.66 142.457 1566.79 139.747C1549.91 137.038 1533.74 150.35 1530.67 169.48C1527.6 188.611 1538.79 206.316 1555.67 209.025C1572.54 211.734 1588.71 198.423 1591.78 179.292Z" fill="black"/>
<path d="M1512.24 194.721C1512.24 194.721 1490.63 150.261 1513.5 114.015C1516.19 109.749 1602.57 81.0631 1602.57 81.0631L1661.95 27.1056L1784.67 17L1843 23.4186L1876.83 63.6731L1900.16 66.0054L1915.91 100.427L1914.16 137.181L1902.49 151.765L1714.01 198.748L1512.24 194.725L1512.24 194.721Z" fill="#0025FF"/>
<path d="M1662.69 29.688L1609.14 79.9547L1766.49 80.8504L1781.15 25.2024L1662.69 29.688Z" fill="black"/>
<path d="M1809.12 23.6013L1827.66 70.7297L1778.79 78.8015L1788.83 26.221L1809.12 23.6013Z" fill="black"/>
<path d="M1815.44 23.1648L1834.64 71.1664L1872.38 65.7106L1840.53 24.9113L1815.44 23.1648Z" fill="black"/>
<path d="M1772.42 178.573C1776.45 153.484 1767.07 131.116 1751.48 128.612C1735.88 126.109 1719.98 144.418 1715.95 169.506C1711.92 194.595 1721.3 216.963 1736.89 219.467C1752.49 221.97 1768.39 203.662 1772.42 178.573Z" fill="black"/>
<path d="M1906.69 150.375C1909.76 131.244 1903.06 114.259 1891.71 112.438C1880.37 110.617 1868.69 124.649 1865.62 143.779C1862.54 162.91 1869.25 179.895 1880.59 181.716C1891.94 183.537 1903.62 169.505 1906.69 150.375Z" fill="black"/>
<path d="M1637.18 143.794C1637.18 143.794 1643.96 110.223 1687.31 111.186C1702.45 111.522 1691.68 141.783 1691.68 141.783L1637.18 143.794H1637.18Z" fill="white"/>
<path d="M1524.07 141.305C1524.07 141.305 1522.92 109.73 1518.88 110.663C1512.28 112.186 1504.63 121.773 1505.7 138.958C1505.89 142.085 1524.07 141.305 1524.07 141.305Z" fill="white"/>
<path d="M1537.61 156.031L1537.82 172.036L1602.69 173.745L1602.9 158.165L1537.61 156.031Z" fill="white"/>
<path d="M1545.88 158.773L1543.77 169.931L1547.53 170.166L1547.29 165.703H1550.7V159.478L1545.88 158.773Z" fill="black"/>
<path d="M1553.52 158.657L1552.93 170.286H1555.75V165.233L1557.75 170.166L1562.21 170.401L1557.63 164.412H1559.51L1560.33 158.893L1553.52 158.657Z" fill="black"/>
<path d="M1563.26 159.128L1563.38 170.286H1565.85L1565.38 159.008L1563.26 159.128Z" fill="black"/>
<path d="M1568.32 159.479V169.11L1573.72 169.931L1574.78 159.829L1568.32 159.479Z" fill="black"/>
<path d="M1577.71 159.949L1576.3 170.286L1579.71 170.051L1579.47 164.998L1581.7 170.051L1585.46 170.521L1581.35 164.293L1584.05 162.766L1583.7 159.949H1577.71Z" fill="black"/>
<path d="M1587.34 170.166L1587.93 159.714L1592.62 159.829L1595.8 169.815H1592.74L1592.62 166.289H1590.74L1590.04 170.636L1587.34 170.166Z" fill="black"/>
<path d="M1569.76 161.71L1570.08 166.376H1571.56L1572.2 162.24L1569.76 161.71Z" fill="white"/>
<path d="M1554.81 161.18V163.3L1557.68 162.453V160.65L1554.81 161.18Z" fill="white"/>
<path d="M1547.18 160.755L1547.07 163.83L1548.77 163.726L1548.87 161.393L1547.18 160.755Z" fill="white"/>
<path d="M1590.01 162.027V164.256L1592.13 164.36L1591.28 161.497L1590.01 162.027Z" fill="white"/>
<path d="M1579.09 161.393V162.77L1581.74 161.923L1579.09 161.393Z" fill="white"/>
<path d="M1535.03 125.938L1574.89 122.441L1635.72 125.938L1625.23 141.324L1569.85 148.526L1532.94 139.924C1532.94 139.924 1529.44 125.938 1535.04 125.938H1535.03Z" fill="#3C3C3B"/>
<path d="M88.7834 182.292C91.854 163.162 80.6632 145.457 63.7882 142.747C46.9131 140.038 30.7441 153.35 27.6735 172.48C24.6029 191.611 35.7937 209.316 52.6687 212.025C69.5438 214.734 85.7129 201.423 88.7834 182.292Z" fill="black"/>
<path d="M9.24447 197.721C9.24447 197.721 -12.3701 153.261 10.5019 117.015C13.192 112.749 99.5681 84.0631 99.5681 84.0631L158.946 30.1056L281.671 20L340 26.4186L373.83 66.6731L397.161 69.0054L412.91 103.427L411.16 140.181L399.493 154.765L211.006 201.748L9.23701 197.725L9.24447 197.721Z" fill="#0025FF"/>
<path d="M159.692 32.688L106.142 82.9547L263.492 83.8504L278.152 28.2024L159.692 32.688Z" fill="black"/>
<path d="M306.117 26.6013L324.661 73.7297L275.794 81.8015L285.831 29.221L306.117 26.6013Z" fill="black"/>
<path d="M312.441 26.1648L331.642 74.1664L369.379 68.7106L337.53 27.9113L312.441 26.1648Z" fill="black"/>
<path d="M269.42 181.573C273.447 156.484 264.07 134.116 248.477 131.612C232.884 129.109 216.979 147.418 212.952 172.506C208.925 197.595 218.301 219.963 233.894 222.467C249.488 224.97 265.393 206.662 269.42 181.573Z" fill="black"/>
<path d="M403.692 153.375C406.762 134.244 400.056 117.259 388.713 115.438C377.37 113.617 365.686 127.649 362.615 146.779C359.545 165.91 366.251 182.895 377.594 184.716C388.937 186.537 400.621 172.505 403.692 153.375Z" fill="black"/>
<path d="M134.182 146.794C134.182 146.794 140.958 113.223 184.31 114.186C199.447 114.522 188.679 144.783 188.679 144.783L134.178 146.794H134.182Z" fill="white"/>
<path d="M21.0719 144.305C21.0719 144.305 19.919 112.73 15.8819 113.663C9.28149 115.186 1.62517 124.773 2.69974 141.958C2.89376 145.085 21.0719 144.305 21.0719 144.305Z" fill="white"/>
<path d="M34.6123 159.031L34.825 175.036L99.6873 176.745L99.9 161.165L34.6123 159.031Z" fill="white"/>
<path d="M42.8844 161.773L40.7688 172.931L44.5298 173.166L44.2947 168.703H47.6975V162.478L42.8844 161.773Z" fill="black"/>
<path d="M50.5182 161.657L49.9287 173.286H52.7495V168.233L54.7456 173.166L59.2081 173.401L54.6262 167.412H56.5067L57.3276 161.893L50.5182 161.657Z" fill="black"/>
<path d="M60.2642 162.128L60.3836 173.286H62.8498L62.3797 162.008L60.2642 162.128Z" fill="black"/>
<path d="M65.3162 162.479V172.11L70.7151 172.931L71.7748 162.829L65.3162 162.479Z" fill="black"/>
<path d="M74.7112 162.949L73.3008 173.286L76.7073 173.051L76.4723 167.998L78.7035 173.051L82.4608 173.521L78.349 167.293L81.0504 165.766L80.6996 162.949H74.7112Z" fill="black"/>
<path d="M84.3374 173.166L84.9269 162.714L89.6244 162.829L92.7959 172.815H89.7401L89.6244 169.289H87.7439L87.0388 173.636L84.3374 173.166Z" fill="black"/>
<path d="M66.76 164.71L67.0772 169.376H68.5625L69.197 165.24L66.76 164.71Z" fill="white"/>
<path d="M51.8093 164.18V166.3L54.6754 165.453V163.65L51.8093 164.18Z" fill="white"/>
<path d="M44.1793 163.755L44.071 166.83L45.7691 166.726L45.8736 164.393L44.1793 163.755Z" fill="white"/>
<path d="M87.0051 165.027V167.256L89.1286 167.36L88.2777 164.497L87.0051 165.027Z" fill="white"/>
<path d="M76.0879 164.393V165.77L78.7376 164.923L76.0879 164.393Z" fill="white"/>
<path d="M32.0342 128.938L71.8903 125.441L132.723 128.938L122.235 144.324L66.8533 151.526L29.941 142.924C29.941 142.924 26.4449 128.938 32.0379 128.938H32.0342Z" fill="#3C3C3B"/>
<path d="M1040.8 196.113C1061.97 196.113 1079.13 175.572 1079.13 150.234C1079.13 124.895 1061.97 104.354 1040.8 104.354C1019.64 104.354 1002.48 124.895 1002.48 150.234C1002.48 175.572 1019.64 196.113 1040.8 196.113Z" fill="black"/>
<path d="M1135.48 25.4654L1076.81 77.2928L985.188 102.981L973 133.177L1137.29 131.374L1185.58 127.317L1187.38 173.285L1347.16 154.809L1370.62 111.091L1404.93 107.939L1397.71 70.9826L1342.64 20.9581L1251.47 16L1135.48 25.4654Z" fill="#FE0000"/>
<path d="M973 133.177L978.237 153.609L985.686 155.558L990.648 171.669L1162.68 176.349L1185.58 127.317L1137.29 131.374L973 133.177Z" fill="black"/>
<path d="M1404.93 107.939L1409 109.688L1406.83 122.159L1378.59 149.271L1347.16 154.809L1370.62 111.091L1404.93 107.939Z" fill="black"/>
<path d="M1196.57 202C1217.74 202 1234.9 181.459 1234.9 156.12C1234.9 130.781 1217.74 110.24 1196.57 110.24C1175.41 110.24 1158.25 130.781 1158.25 156.12C1158.25 181.459 1175.41 202 1196.57 202Z" fill="black"/>
<path d="M1367.29 175.502C1381.56 175.502 1393.13 158.805 1393.13 138.209C1393.13 117.614 1381.56 100.917 1367.29 100.917C1353.01 100.917 1341.44 117.614 1341.44 138.209C1341.44 158.805 1353.01 175.502 1367.29 175.502Z" fill="black"/>
<path d="M1247 20.3787L1230.92 71.9045L1081.57 75.0088L1136.8 27.8852L1247 20.3787Z" fill="black"/>
<path d="M1256.85 23.2252L1242.59 79.4109L1305.86 76.0457L1288.49 21.6731L1256.85 23.2252Z" fill="black"/>
<path d="M1293.67 22.4492L1311.05 75.0087L1355.65 71.1249L1326.09 24.7808L1293.67 22.4492Z" fill="black"/>
<path d="M1329.98 25.0383L1361.61 70.6098L1381.84 68.2781L1380.8 57.9215L1343.72 26.8514L1329.98 25.0383Z" fill="black"/>
<path d="M983.416 107.085L973 133.177L1012.59 132.814L1016.16 105.974L983.416 107.085Z" fill="white"/>
<path d="M1090.11 107.302L1082.07 131.984L1136.15 131.462L1136.16 105.804L1090.11 107.302Z" fill="white"/>
<path d="M1009.75 138.142L1011.3 154.398L1078.83 155.466L1076.67 138.409L1009.75 138.142Z" fill="white"/>
<path d="M1015.19 113.189L1088.5 112.24L1082.16 131.987L1012.59 132.814L1015.19 113.189Z" fill="#3C3C3B"/>
<path d="M1014.27 140.826L1014.79 151.426L1020.16 149.383L1018.88 141.08L1014.27 140.826Z" fill="black"/>
<path d="M1021.13 140.406L1022.46 150.915L1028.99 151.043L1028.73 148.746H1024.25V145.936H1026.56V144.147L1024.13 143.889L1024 142.486L1027.45 142.741V140.955L1021.13 140.406Z" fill="black"/>
<path d="M1029.11 141.08L1031.55 150.66L1034.61 150.915L1036.28 141.592L1033.98 141.463L1033.08 147.468L1031.16 141.209L1029.11 141.08Z" fill="black"/>
<path d="M1038.07 141.846L1039.6 145.936L1039.35 152.067L1041.65 151.938L1041.39 146.062L1043.7 142.486L1041.78 141.72L1040.63 144.018L1039.86 141.209L1038.07 141.846Z" fill="black"/>
<path d="M1046.25 142.229L1043.57 152.067L1046 151.938L1046.25 149.383L1048.94 149.512V151.81H1051.63L1048.56 141.592L1046.25 142.229Z" fill="black"/>
<path d="M1050.99 141.846V143.635L1053.55 143.764L1053.16 151.684L1055.34 151.555L1055.59 144.018L1057.77 143.889L1058.02 141.463L1050.99 141.846Z" fill="black"/>
<path d="M1059.94 141.592L1058.41 152.192L1061.22 151.426L1060.71 148.234L1062.76 151.172H1065.06L1061.35 146.062L1065.19 142.486L1063.01 141.72L1061.09 143.381V140.697L1059.94 141.592Z" fill="black"/>
<path d="M1067.87 142.229L1066.98 152.067H1069.02L1069.15 149.383H1070.82L1072.1 152.192L1074.78 152.067L1070.43 142.104L1067.87 142.229Z" fill="black"/>
<path d="M1016.33 143.212V148.678L1018.16 147.766L1017.7 144.032L1016.33 143.212Z" fill="white"/>
<path d="M1047.35 144.669L1046.98 147.038H1048.62L1047.35 144.669Z" fill="white"/>
<path d="M1069.24 144.577L1068.97 147.221H1070.06L1069.24 144.577Z" fill="white"/>
<path d="M766.092 63.9707L698.518 82.5102L516.167 88.0732L603.177 67.6794L766.092 63.9707Z" fill="#001AFF"/>
<path d="M603.177 67.6795L631.217 7.42133L776.274 0L766.091 63.9708L603.177 67.6795Z" fill="#E42320"/>
<path d="M603.899 183.518C607.425 155.405 593.53 130.507 572.864 127.907C552.198 125.306 532.587 145.989 529.061 174.102C525.534 202.215 539.429 227.113 560.095 229.713C580.761 232.313 600.373 211.631 603.899 183.518Z" fill="black"/>
<path d="M720.609 159.243C724.135 131.13 714.073 106.714 698.135 104.709C682.197 102.703 666.419 123.868 662.893 151.981C659.366 180.094 669.428 204.51 685.366 206.515C701.304 208.521 717.083 187.356 720.609 159.243Z" fill="black"/>
<path d="M516.167 88.0733L520.484 162.485L682.785 171.511L698.518 82.5103L516.167 88.0733Z" fill="#E42320"/>
<path d="M852.176 16.6891L872.541 83.4375L868.839 148.335L682.785 171.511L698.518 82.5103L766.092 63.9708L776.275 0L852.176 16.6891Z" fill="#001AFF"/>
<path d="M772.772 195.92C776.298 167.807 762.403 142.909 741.737 140.309C721.071 137.709 701.46 158.391 697.934 186.504C694.408 214.617 708.302 239.516 728.968 242.116C749.634 244.716 769.246 224.033 772.772 195.92Z" fill="black"/>
<path d="M873.346 168.45C876.421 143.93 867.437 122.609 853.279 120.827C839.12 119.046 825.15 137.479 822.075 161.999C818.999 186.519 827.984 207.84 842.142 209.621C856.3 211.402 870.27 192.969 873.346 168.45Z" fill="black"/>
<path d="M537.178 140.882C543.276 140.882 548.219 133.682 548.219 124.8C548.219 115.917 543.276 108.717 537.178 108.717C531.08 108.717 526.137 115.917 526.137 124.8C526.137 133.682 531.08 140.882 537.178 140.882Z" fill="white"/>
<path d="M649.451 145.744C655.992 145.744 661.295 138.018 661.295 128.488C661.295 118.958 655.992 111.233 649.451 111.233C642.909 111.233 637.606 118.958 637.606 128.488C637.606 138.018 642.909 145.744 649.451 145.744Z" fill="white"/>
<path d="M606.789 67.628L633.192 14.3038L762.67 9.18848L754.576 64.2165L606.789 67.628Z" fill="black"/>
<path d="M782.933 11.8511L775.444 63.0436L821.999 66.9583L816.789 17.7232L782.933 11.8511Z" fill="black"/>
<path d="M824.404 19.2925L832.743 68.5871L864.321 75.109L847.302 24.2731L824.404 19.2925Z" fill="black"/>
<path d="M508.417 150.614L506.914 166.431L664.824 173.963L668.583 154.382L508.417 150.614Z" fill="#001AFF"/>
<path d="M639.015 94.9202V104.37L668.314 103.871V92.9312L639.015 94.9202Z" fill="#001AFF"/>
<path d="M525.29 95.031L524.364 102.436L548.251 103.546L548.817 95.031H525.29Z" fill="#001AFF"/>
<path d="M565.567 114.383L566.002 136.29L615.872 136.73L617.621 113.947L565.567 114.383Z" fill="white"/>
<path d="M569.72 118L569.942 132.463H574.832L572.83 124.007L577.941 131.571H580.386L580.164 118H576.83V123.559L571.944 118H569.72Z" fill="black"/>
<path d="M583.183 118.151L583.357 133.025L587.25 131.785L586.012 117.62L583.183 118.151Z" fill="black"/>
<path d="M589.014 118.682L591.843 131.785H596.266L599.976 119.038L595.91 118.682L594.173 127.193L591.669 118.329L589.014 118.682Z" fill="black"/>
<path d="M600.241 131.753L604.415 118.218H609.384L610.776 131.357L607.794 131.753L607.398 128.568L604.815 128.37L603.027 131.753H600.241Z" fill="black"/>
<path d="M606.006 122.315L605.353 125.057L607.105 125.584" fill="white"/>
<path d="M2270.18 67.9707L2202.6 86.5102L2020.25 92.0732L2107.26 71.6794L2270.18 67.9707Z" fill="#001AFF"/>
<path d="M2107.26 71.6795L2135.3 11.4213L2280.36 4L2270.18 67.9708L2107.26 71.6795Z" fill="#E42320"/>
<path d="M2107.98 187.518C2111.51 159.405 2097.62 134.507 2076.95 131.907C2056.28 129.306 2036.67 149.989 2033.15 178.102C2029.62 206.215 2043.52 231.113 2064.18 233.713C2084.85 236.313 2104.46 215.631 2107.98 187.518Z" fill="black"/>
<path d="M2224.7 163.243C2228.22 135.13 2218.16 110.714 2202.22 108.709C2186.28 106.703 2170.5 127.868 2166.98 155.981C2163.45 184.094 2173.51 208.51 2189.45 210.515C2205.39 212.521 2221.17 191.356 2224.7 163.243Z" fill="black"/>
<path d="M2020.25 92.0733L2024.57 166.485L2186.87 175.511L2202.6 86.5103L2020.25 92.0733Z" fill="#E42320"/>
<path d="M2356.26 20.6891L2376.63 87.4375L2372.92 152.335L2186.87 175.511L2202.6 86.5103L2270.18 67.9708L2280.36 4L2356.26 20.6891Z" fill="#001AFF"/>
<path d="M2276.86 199.92C2280.38 171.807 2266.49 146.909 2245.82 144.309C2225.16 141.709 2205.55 162.391 2202.02 190.504C2198.49 218.617 2212.39 243.516 2233.05 246.116C2253.72 248.716 2273.33 228.033 2276.86 199.92Z" fill="black"/>
<path d="M2377.43 172.45C2380.51 147.93 2371.52 126.609 2357.36 124.827C2343.21 123.046 2329.24 141.479 2326.16 165.999C2323.08 190.519 2332.07 211.84 2346.23 213.621C2360.39 215.402 2374.36 196.969 2377.43 172.45Z" fill="black"/>
<path d="M2041.26 144.882C2047.36 144.882 2052.31 137.682 2052.31 128.8C2052.31 119.917 2047.36 112.717 2041.26 112.717C2035.17 112.717 2030.22 119.917 2030.22 128.8C2030.22 137.682 2035.17 144.882 2041.26 144.882Z" fill="white"/>
<path d="M2153.54 149.744C2160.08 149.744 2165.38 142.018 2165.38 132.488C2165.38 122.958 2160.08 115.233 2153.54 115.233C2147 115.233 2141.69 122.958 2141.69 132.488C2141.69 142.018 2147 149.744 2153.54 149.744Z" fill="white"/>
<path d="M2110.87 71.628L2137.28 18.3038L2266.76 13.1885L2258.66 68.2165L2110.87 71.628Z" fill="black"/>
<path d="M2287.02 15.8511L2279.53 67.0436L2326.08 70.9583L2320.87 21.7232L2287.02 15.8511Z" fill="black"/>
<path d="M2328.49 23.2925L2336.83 72.5871L2368.41 79.109L2351.39 28.2731L2328.49 23.2925Z" fill="black"/>
<path d="M2012.5 154.614L2011 170.431L2168.91 177.963L2172.67 158.382L2012.5 154.614Z" fill="#001AFF"/>
<path d="M2143.1 98.9202V108.37L2172.4 107.871V96.9312L2143.1 98.9202Z" fill="#001AFF"/>
<path d="M2029.38 99.031L2028.45 106.436L2052.34 107.546L2052.9 99.031H2029.38Z" fill="#001AFF"/>
<path d="M2069.65 118.383L2070.09 140.29L2119.96 140.73L2121.71 117.947L2069.65 118.383Z" fill="white"/>
<path d="M2073.81 122L2074.03 136.463H2078.92L2076.92 128.007L2082.03 135.571H2084.47L2084.25 122H2080.92V127.559L2076.03 122H2073.81Z" fill="black"/>
<path d="M2087.27 122.151L2087.44 137.025L2091.34 135.785L2090.1 121.62L2087.27 122.151Z" fill="black"/>
<path d="M2093.1 122.682L2095.93 135.785H2100.35L2104.06 123.038L2100 122.682L2098.26 131.193L2095.75 122.329L2093.1 122.682Z" fill="black"/>
<path d="M2104.33 135.753L2108.5 122.218H2113.47L2114.86 135.357L2111.88 135.753L2111.48 132.568L2108.9 132.37L2107.11 135.753H2104.33Z" fill="black"/>
<path d="M2110.09 126.315L2109.44 129.057L2111.19 129.584" fill="white"/>
<path d="M2543.8 205.113C2564.97 205.113 2582.13 184.572 2582.13 159.234C2582.13 133.895 2564.97 113.354 2543.8 113.354C2522.64 113.354 2505.48 133.895 2505.48 159.234C2505.48 184.572 2522.64 205.113 2543.8 205.113Z" fill="black"/>
<path d="M2638.48 34.4654L2579.81 86.2928L2488.19 111.981L2476 142.177L2640.29 140.374L2688.58 136.317L2690.38 182.285L2850.16 163.809L2873.62 120.091L2907.93 116.939L2900.71 79.9826L2845.64 29.9581L2754.47 25L2638.48 34.4654Z" fill="#FE0000"/>
<path d="M2476 142.177L2481.24 162.609L2488.69 164.558L2493.65 180.669L2665.68 185.349L2688.58 136.317L2640.29 140.374L2476 142.177Z" fill="black"/>
<path d="M2907.93 116.939L2912 118.688L2909.83 131.159L2881.59 158.271L2850.16 163.809L2873.62 120.091L2907.93 116.939Z" fill="black"/>
<path d="M2699.57 211C2720.74 211 2737.9 190.459 2737.9 165.12C2737.9 139.781 2720.74 119.24 2699.57 119.24C2678.41 119.24 2661.25 139.781 2661.25 165.12C2661.25 190.459 2678.41 211 2699.57 211Z" fill="black"/>
<path d="M2870.29 184.502C2884.56 184.502 2896.13 167.805 2896.13 147.209C2896.13 126.614 2884.56 109.917 2870.29 109.917C2856.01 109.917 2844.44 126.614 2844.44 147.209C2844.44 167.805 2856.01 184.502 2870.29 184.502Z" fill="black"/>
<path d="M2750 29.3787L2733.92 80.9045L2584.57 84.0088L2639.8 36.8852L2750 29.3787Z" fill="black"/>
<path d="M2759.85 32.2252L2745.59 88.4109L2808.86 85.0457L2791.49 30.6731L2759.85 32.2252Z" fill="black"/>
<path d="M2796.67 31.4492L2814.05 84.0087L2858.65 80.1249L2829.09 33.7808L2796.67 31.4492Z" fill="black"/>
<path d="M2832.98 34.0383L2864.61 79.6098L2884.84 77.2781L2883.8 66.9215L2846.72 35.8514L2832.98 34.0383Z" fill="black"/>
<path d="M2486.42 116.085L2476 142.177L2515.59 141.814L2519.16 114.974L2486.42 116.085Z" fill="white"/>
<path d="M2593.11 116.302L2585.07 140.984L2639.15 140.462L2639.16 114.804L2593.11 116.302Z" fill="white"/>
<path d="M2512.75 147.142L2514.3 163.398L2581.83 164.466L2579.67 147.409L2512.75 147.142Z" fill="white"/>
<path d="M2518.19 122.189L2591.5 121.24L2585.16 140.987L2515.59 141.814L2518.19 122.189Z" fill="#3C3C3B"/>
<path d="M2517.27 149.826L2517.79 160.426L2523.16 158.383L2521.88 150.08L2517.27 149.826Z" fill="black"/>
<path d="M2524.13 149.406L2525.46 159.915L2531.99 160.043L2531.73 157.746H2527.25V154.936H2529.56V153.147L2527.13 152.889L2527 151.486L2530.45 151.741V149.955L2524.13 149.406Z" fill="black"/>
<path d="M2532.11 150.08L2534.55 159.66L2537.61 159.915L2539.28 150.592L2536.98 150.463L2536.08 156.468L2534.16 150.209L2532.11 150.08Z" fill="black"/>
<path d="M2541.07 150.846L2542.6 154.936L2542.35 161.067L2544.65 160.938L2544.39 155.062L2546.7 151.486L2544.78 150.72L2543.63 153.018L2542.86 150.209L2541.07 150.846Z" fill="black"/>
<path d="M2549.25 151.229L2546.57 161.067L2549 160.938L2549.25 158.383L2551.94 158.512V160.81H2554.63L2551.56 150.592L2549.25 151.229Z" fill="black"/>
<path d="M2553.99 150.846V152.635L2556.55 152.764L2556.16 160.684L2558.34 160.555L2558.59 153.018L2560.77 152.889L2561.02 150.463L2553.99 150.846Z" fill="black"/>
<path d="M2562.94 150.592L2561.41 161.192L2564.22 160.426L2563.71 157.234L2565.76 160.172H2568.06L2564.35 155.062L2568.19 151.486L2566.01 150.72L2564.09 152.381V149.697L2562.94 150.592Z" fill="black"/>
<path d="M2570.87 151.229L2569.98 161.067H2572.02L2572.15 158.383H2573.82L2575.1 161.192L2577.78 161.067L2573.43 151.104L2570.87 151.229Z" fill="black"/>
<path d="M2519.33 152.212V157.678L2521.16 156.766L2520.7 153.032L2519.33 152.212Z" fill="white"/>
<path d="M2550.35 153.669L2549.98 156.038H2551.62L2550.35 153.669Z" fill="white"/>
<path d="M2572.24 153.577L2571.97 156.221H2573.06L2572.24 153.577Z" fill="white"/>
</svg>
