<svg width="1291" height="353" viewBox="0 0 1291 353" fill="none" xmlns="http://www.w3.org/2000/svg">
<g clip-path="url(#clip0_289_448)">
<path d="M12 202.08L21.291 177.5L184.942 222.059L305.183 330.105L429.791 330.651V352.5H300.264L177.291 245L12 202.08Z" fill="black"/>
<path d="M304.791 249.5H429.791V330.5H304.791V249.5Z" fill="#001AFF"/>
<path d="M182.791 79.5L305.59 249.299V331L182.791 222.5V79.5Z" fill="#001AFF"/>
<path d="M57.9339 79.5H182.791V222.5L21.791 177.744L57.9339 79.5Z" fill="#001AFF"/>
<path d="M102.484 0.500003L77.291 80L182.798 79.5L281.791 0L102.484 0.500003Z" fill="black"/>
<path d="M226.965 261.684L224.791 137.5L243.473 163.5L247.504 279.5L226.965 261.684Z" fill="white"/>
<path d="M195.791 234L194.791 96L211.791 119.5L215.791 251.5L195.791 234Z" fill="white"/>
<path d="M272.546 203.5L256.791 182L258.828 289.5L276.291 305L272.546 203.5Z" fill="white"/>
<path d="M441.791 276L451.082 251.42L610.668 266.244L734.183 329.605L858.791 330.151V352H729.264L603.016 289.185L441.791 276Z" fill="black"/>
<path d="M733.791 249H858.791V330H733.791V249Z" fill="#001AFF"/>
<path d="M611.341 124L734.59 248.799L736.791 330L610.791 266.783L611.341 124Z" fill="#001AFF"/>
<path d="M486.934 124H611.791V267L451.291 251.5L486.934 124Z" fill="#001AFF"/>
<path d="M531.484 0L505.791 124H611.298L710.791 0H531.484Z" fill="black"/>
<path d="M671.374 296.597L649.791 163L671.928 185.357L693.791 308L671.374 296.597Z" fill="white"/>
<path d="M637.339 279.533L613.791 125L634.053 145.75L659.791 291L637.339 279.533Z" fill="white"/>
<path d="M706.248 219.815L687.791 201L706.248 314.951L725.791 325L706.248 219.815Z" fill="white"/>
<path d="M1153.29 249H1278.29V330H1153.29V249Z" fill="#001AFF"/>
<path d="M1027.84 187.217L1153.29 249V330L1027.29 330L1027.84 187.217Z" fill="#001AFF"/>
<path d="M902.434 187H1027.79L1027.29 330H870.791L902.434 187Z" fill="#001AFF"/>
<path d="M962.985 0L912.493 187H1018L1142.29 0H962.985Z" fill="black"/>
<path d="M1091.29 330L1072.79 209.5L1091.79 219L1112.29 330H1091.29Z" fill="white"/>
<path d="M1057.29 330L1037.79 192L1059.79 203L1080.29 330H1057.29Z" fill="white"/>
<path d="M1122.75 234L1105.29 225.387L1123.79 330.001H1142.29L1122.75 234Z" fill="white"/>
<rect x="870.791" y="330" width="408" height="22" fill="black"/>
</g>
<defs>
<clipPath id="clip0_289_448">
<rect width="1291" height="352.5" fill="white"/>
</clipPath>
</defs>
</svg>
