<svg width="436" height="186" viewBox="0 0 436 186" fill="none" xmlns="http://www.w3.org/2000/svg">
<path d="M67.8036 180.113C88.9713 180.113 106.131 159.572 106.131 134.234C106.131 108.895 88.9713 88.3538 67.8036 88.3538C46.6359 88.3538 29.4761 108.895 29.4761 134.234C29.4761 159.572 46.6359 180.113 67.8036 180.113Z" fill="black"/>
<path d="M162.481 9.46538L103.806 61.2928L12.1876 86.9812L0 117.177L164.286 115.374L212.578 111.317L214.384 157.285L374.156 138.809L397.625 95.091L431.927 91.9393L424.705 54.9826L369.642 4.95806L278.471 0L162.481 9.46538Z" fill="#FE0000"/>
<path d="M0 117.177L5.23682 137.609L12.6865 139.558L17.6484 155.669L189.676 160.349L212.578 111.317L164.286 115.374L0 117.177Z" fill="black"/>
<path d="M431.927 91.9392L436 93.6879L433.828 106.159L405.59 133.271L374.156 138.809L397.625 95.0909L431.927 91.9392Z" fill="black"/>
<path d="M223.575 186C244.742 186 261.902 165.459 261.902 140.12C261.902 114.781 244.742 94.2402 223.575 94.2402C202.407 94.2402 185.247 114.781 185.247 140.12C185.247 165.459 202.407 186 223.575 186Z" fill="black"/>
<path d="M394.285 159.502C408.561 159.502 420.133 142.805 420.133 122.209C420.133 101.614 408.561 84.9172 394.285 84.9172C380.01 84.9172 368.437 101.614 368.437 122.209C368.437 142.805 380.01 159.502 394.285 159.502Z" fill="black"/>
<path d="M274.002 4.37866L257.925 55.9045L108.568 59.0088L163.798 11.8852L274.002 4.37866Z" fill="black"/>
<path d="M283.854 7.22524L269.593 63.4109L332.862 60.0457L315.489 5.6731L283.854 7.22524Z" fill="black"/>
<path d="M320.675 6.44922L338.048 59.0087L382.648 55.1249L353.087 8.78083L320.675 6.44922Z" fill="black"/>
<path d="M356.976 9.03833L388.611 54.6098L408.835 52.2781L407.797 41.9215L370.718 10.8514L356.976 9.03833Z" fill="black"/>
<path d="M10.4159 91.0852L0 117.177L39.5867 116.814L43.1605 89.9736L10.4159 91.0852Z" fill="white"/>
<path d="M117.111 91.3021L109.074 115.984L163.149 115.462L163.163 89.8042L117.111 91.3021Z" fill="white"/>
<path d="M36.7529 122.142L38.2972 138.398L105.829 139.466L103.671 122.409L36.7529 122.142Z" fill="white"/>
<path d="M42.1901 97.1887L115.499 96.2397L109.159 115.987L39.5869 116.814L42.1901 97.1887Z" fill="#3C3C3B"/>
<path d="M41.2734 124.826L41.7859 135.426L47.1585 133.383L45.879 125.08L41.2734 124.826Z" fill="black"/>
<path d="M48.1328 124.406L49.4632 134.915L55.9863 135.043L55.7284 132.746H51.2518V129.936H53.5563V128.147L51.1262 127.889L50.9973 126.486L54.4523 126.741V124.955L48.1328 124.406Z" fill="black"/>
<path d="M56.1118 125.08L58.5453 134.66L61.6134 134.915L63.2764 125.592L60.9753 125.463L60.0793 131.468L58.1617 125.209L56.1118 125.08Z" fill="black"/>
<path d="M65.0684 125.846L66.6024 129.936L66.3479 136.067L68.6489 135.938L68.3944 130.062L70.6955 126.486L68.7779 125.72L67.6274 128.018L66.8603 125.209L65.0684 125.846Z" fill="black"/>
<path d="M73.2544 126.229L70.5698 136.067L72.9999 135.938L73.2544 133.383L75.9424 133.512V135.81H78.627L75.5589 125.592L73.2544 126.229Z" fill="black"/>
<path d="M77.9888 125.846V127.635L80.5478 127.764L80.1643 135.684L82.3364 135.555L82.5943 128.018L84.7698 127.889L85.0244 125.463L77.9888 125.846Z" fill="black"/>
<path d="M86.9423 125.592L85.4082 136.192L88.2218 135.426L87.7093 132.234L89.7558 135.172H92.0603L88.3507 130.062L92.1893 126.486L90.0138 125.72L88.0928 127.381V124.697L86.9423 125.592Z" fill="black"/>
<path d="M94.8735 126.229L93.9775 136.067H96.0241L96.153 133.383H97.8161L99.0956 136.192L101.784 136.067L97.4325 126.104L94.8735 126.229Z" fill="black"/>
<path d="M43.3301 127.212V132.678L45.156 131.766L44.6978 128.032L43.3301 127.212Z" fill="white"/>
<path d="M74.347 128.669L73.9805 131.038H75.6231L74.347 128.669Z" fill="white"/>
<path d="M96.2378 128.577L95.9663 131.221H97.0592L96.2378 128.577Z" fill="white"/>
</svg>
