<svg width="302" height="351" viewBox="0 0 302 351" fill="none" xmlns="http://www.w3.org/2000/svg">
<path d="M155.835 286.226C164.05 271.982 142.83 244.321 108.437 224.443C74.0452 204.565 39.5053 199.998 31.2903 214.242C23.0753 228.487 44.2961 256.148 78.6883 276.026C113.08 295.903 147.62 300.47 155.835 286.226Z" fill="black"/>
<path d="M90.5868 339.473C102.989 333.664 100.581 302.286 85.207 269.386C69.8334 236.487 47.3165 214.525 34.9141 220.333C22.5117 226.141 24.9203 257.52 40.2939 290.419C55.6674 323.319 78.1843 345.281 90.5868 339.473Z" fill="black"/>
<path d="M56.9648 345.967C78.4845 345.967 95.9296 340.578 95.9296 333.93C95.9296 327.283 78.4845 321.894 56.9648 321.894C35.4451 321.894 18 327.283 18 333.93C18 340.578 35.4451 345.967 56.9648 345.967Z" fill="#FFEC00"/>
<path d="M220.212 276.021C254.604 256.143 275.825 228.482 267.61 214.238C259.395 199.994 224.855 204.56 190.463 224.438C156.071 244.316 134.85 271.977 143.065 286.222C151.28 300.466 185.82 295.899 220.212 276.021Z" fill="black"/>
<path d="M258.631 290.466C274.004 257.567 276.413 226.188 264.011 220.38C251.608 214.572 229.091 236.534 213.718 269.434C198.344 302.333 195.936 333.712 208.338 339.52C220.74 345.328 243.257 323.366 258.631 290.466Z" fill="black"/>
<path d="M241.938 345.967C263.458 345.967 280.903 340.578 280.903 333.93C280.903 327.283 263.458 321.894 241.938 321.894C220.418 321.894 202.973 327.283 202.973 333.93C202.973 340.578 220.418 345.967 241.938 345.967Z" fill="#E42320"/>
<path d="M168.824 59.1543H150.565V122.164H168.824V59.1543Z" fill="#FFEC00"/>
<path d="M150.557 59.1543H132.479V122.164H150.557V59.1543Z" fill="black"/>
<path d="M122.455 44.1812C122.455 68.5762 135.083 88.3624 150.659 88.3624V0C135.083 0 122.455 19.7783 122.455 44.1812Z" fill="#F7F7F7"/>
<path d="M150.651 0V88.3545C166.228 88.3545 178.855 68.5762 178.855 44.1733C178.855 19.7704 166.228 0 150.651 0Z" fill="#E42320"/>
<path d="M148.134 97.2112C147.467 97.2112 146.808 97.2426 146.149 97.2975C131.694 90.765 104.581 90.0583 74.7844 96.6145C44.1177 103.359 19.0745 115.922 8.98815 128.319C0.392042 136.454 -2.58836 168.81 2.45479 206.435C8.16461 249.015 21.9843 282.219 33.3333 280.594C44.6745 278.969 49.2471 243.142 43.5373 200.562C41.3647 184.341 38.0078 169.486 34.0627 157.394C48.502 158.949 66.9256 157.779 86.51 153.476C93.3413 151.976 99.8982 150.178 106.071 148.168C102.392 161.956 100.306 177.753 100.306 194.54C100.306 248.292 121.718 291.869 148.134 291.869C148.957 291.869 149.773 291.83 150.589 291.743V97.3447C149.773 97.2583 148.957 97.2112 148.134 97.2112Z" fill="#E42320"/>
<path d="M292.189 128.319C282.095 115.922 257.06 103.351 226.393 96.6145C195.726 89.8699 167.898 90.8121 153.789 97.8943C152.73 97.6431 151.663 97.4625 150.589 97.3526V291.744C175.867 289.145 195.969 246.62 195.969 194.54C195.969 176.992 193.687 160.527 189.687 146.308C197.389 149.087 205.789 151.529 214.667 153.476C234.252 157.787 252.683 158.957 267.114 157.394C263.169 169.486 259.812 184.341 257.64 200.562C251.93 243.142 256.495 278.969 267.844 280.594C279.185 282.219 293.013 249.015 298.722 206.435C303.766 168.803 300.785 136.446 292.189 128.319Z" fill="black"/>
</svg>
