<svg width="303" height="351" viewBox="0 0 303 351" fill="none" xmlns="http://www.w3.org/2000/svg">
<path d="M156.746 286.224C164.961 271.98 143.74 244.319 109.348 224.441C74.9561 204.563 40.4162 199.996 32.2012 214.24C23.9862 228.484 45.207 256.146 79.5992 276.024C113.991 295.901 148.531 300.468 156.746 286.224Z" fill="#FF9900"/>
<path d="M91.485 339.459C103.887 333.651 101.479 302.272 86.1052 269.373C70.7316 236.473 48.2147 214.511 35.8123 220.319C23.4099 226.127 25.8185 257.506 41.1921 290.405C56.5656 323.305 79.0826 345.267 91.485 339.459Z" fill="#FF9900"/>
<path d="M57.8679 345.967C79.3876 345.967 96.8327 340.578 96.8327 333.93C96.8327 327.283 79.3876 321.894 57.8679 321.894C36.3482 321.894 18.9031 327.283 18.9031 333.93C18.9031 340.578 36.3482 345.967 57.8679 345.967Z" fill="black"/>
<path d="M221.117 276.021C255.509 256.143 276.73 228.482 268.515 214.238C260.3 199.994 225.76 204.56 191.368 224.438C156.976 244.316 135.755 271.977 143.97 286.222C152.185 300.466 186.725 295.899 221.117 276.021Z" fill="white"/>
<path d="M259.559 290.472C274.932 257.572 277.341 226.194 264.939 220.386C252.536 214.578 230.019 236.539 214.646 269.439C199.272 302.338 196.863 333.717 209.266 339.525C221.668 345.333 244.185 323.371 259.559 290.472Z" fill="#001AFF"/>
<path d="M242.849 345.967C264.369 345.967 281.814 340.578 281.814 333.93C281.814 327.283 264.369 321.894 242.849 321.894C221.329 321.894 203.884 327.283 203.884 333.93C203.884 340.578 221.329 345.967 242.849 345.967Z" fill="#E42320"/>
<path d="M169.727 59.1543H151.468V122.164H169.727V59.1543Z" fill="black"/>
<path d="M151.468 59.1543H133.39V122.164H151.468V59.1543Z" fill="#E42320"/>
<path d="M123.358 44.1812C123.358 68.5762 135.986 88.3624 151.562 88.3624V0C135.986 0 123.358 19.7783 123.358 44.1812Z" fill="#001AFF"/>
<path d="M151.562 0V88.3545C167.139 88.3545 179.766 68.5762 179.766 44.1733C179.766 19.7704 167.131 0 151.562 0Z" fill="white"/>
<path d="M293.092 128.421C282.998 115.992 257.963 103.39 227.296 96.6223C196.629 89.862 168.802 90.8042 154.692 97.9021C153.633 97.6509 152.566 97.4703 151.492 97.3604V292.293C176.77 289.686 196.872 247.044 196.872 194.823C196.872 177.219 194.59 160.715 190.59 146.457C198.292 149.244 206.692 151.694 215.57 153.649C235.155 157.967 253.586 159.145 268.018 157.582C264.072 169.705 260.716 184.608 258.543 200.876C252.833 243.574 257.398 279.503 268.747 281.128C280.088 282.753 293.916 249.462 299.625 206.765C304.669 169.03 301.688 136.587 293.092 128.429V128.421Z" fill="#FFEC00"/>
<path d="M149.045 97.2269C148.378 97.2269 147.719 97.2583 147.06 97.3132C132.605 90.7571 105.491 90.0583 75.6953 96.6223C45.0286 103.383 19.9854 115.984 9.89905 128.421C1.30294 136.579 -1.67747 169.022 3.36568 206.757C9.0755 249.454 22.8951 282.745 34.2442 281.12C45.5854 279.495 50.158 243.566 44.4482 200.869C42.2756 184.6 38.9187 169.705 34.9736 157.575C49.4129 159.137 67.8365 157.959 87.4209 153.641C94.2523 152.133 100.809 150.335 106.982 148.317C103.303 162.144 101.217 177.981 101.217 194.823C101.217 248.724 122.629 292.419 149.045 292.419C149.868 292.419 150.684 292.379 151.499 292.293V97.3603C150.684 97.274 149.868 97.219 149.045 97.219V97.2269Z" fill="#FF9900"/>
</svg>
