<svg width="302" height="351" viewBox="0 0 302 351" fill="none" xmlns="http://www.w3.org/2000/svg">
<path d="M156.143 286.221C164.358 271.977 143.137 244.316 108.745 224.438C74.3531 204.56 39.8132 199.993 31.5982 214.237C23.3832 228.482 44.604 256.143 78.9962 276.021C113.388 295.899 147.928 300.465 156.143 286.221Z" fill="white"/>
<path d="M90.8734 339.437C103.276 333.629 100.867 302.25 85.4937 269.351C70.1201 236.451 47.6032 214.489 35.2008 220.297C22.7983 226.105 25.2069 257.484 40.5805 290.383C55.9541 323.283 78.471 345.245 90.8734 339.437Z" fill="white"/>
<path d="M57.269 345.967C78.7887 345.967 96.2338 340.578 96.2338 333.93C96.2338 327.283 78.7887 321.894 57.269 321.894C35.7493 321.894 18.3042 327.283 18.3042 333.93C18.3042 340.578 35.7493 345.967 57.269 345.967Z" fill="white"/>
<path d="M220.521 276.025C254.913 256.147 276.134 228.486 267.919 214.242C259.704 199.998 225.164 204.565 190.772 224.442C156.379 244.32 135.159 271.981 143.374 286.226C151.589 300.47 186.128 295.903 220.521 276.025Z" fill="#E42320"/>
<path d="M258.982 290.477C274.356 257.577 276.764 226.199 264.362 220.391C251.959 214.583 229.442 236.544 214.069 269.444C198.695 302.343 196.287 333.722 208.689 339.53C221.091 345.338 243.608 323.376 258.982 290.477Z" fill="black"/>
<path d="M242.25 345.967C263.77 345.967 281.215 340.578 281.215 333.93C281.215 327.283 263.77 321.894 242.25 321.894C220.73 321.894 203.285 327.283 203.285 333.93C203.285 340.578 220.73 345.967 242.25 345.967Z" fill="#FF9900"/>
<path d="M169.128 59.1543H150.869V122.164H169.128V59.1543Z" fill="#E42320"/>
<path d="M150.869 59.1543H132.791V122.164H150.869V59.1543Z" fill="white"/>
<path d="M122.759 44.1812C122.759 68.5762 135.387 88.3624 150.963 88.3624V0C135.387 0 122.759 19.7783 122.759 44.1812Z" fill="black"/>
<path d="M150.956 0V88.3545C166.532 88.3545 179.16 68.5762 179.16 44.1733C179.16 19.7704 166.532 0 150.956 0Z" fill="white"/>
<path d="M292.493 128.421C282.399 115.992 257.364 103.39 226.697 96.6223C196.03 89.862 168.202 90.8042 154.093 97.9021C153.034 97.6509 151.967 97.4703 150.893 97.3604V292.293C176.171 289.686 196.273 247.044 196.273 194.823C196.273 177.219 193.991 160.715 189.991 146.457C197.693 149.244 206.093 151.694 214.971 153.649C234.556 157.967 252.987 159.145 267.418 157.582C263.473 169.705 260.116 184.608 257.944 200.876C252.234 243.574 256.799 279.503 268.148 281.128C279.489 282.753 293.317 249.462 299.026 206.765C304.07 169.03 301.089 136.587 292.493 128.429V128.421Z" fill="#001AFF"/>
<path d="M148.438 97.2269C147.771 97.2269 147.112 97.2583 146.453 97.3132C131.998 90.7571 104.885 90.0583 75.0884 96.6223C44.4216 103.383 19.3784 115.984 9.29211 128.421C0.696007 136.579 -2.28441 169.022 2.75874 206.757C8.46857 249.454 22.2882 282.745 33.6373 281.12C44.9785 279.495 49.551 243.566 43.8412 200.869C41.6687 184.6 38.3118 169.705 34.3667 157.575C48.806 159.137 67.2296 157.959 86.8139 153.641C93.6453 152.133 100.202 150.335 106.375 148.317C102.696 162.144 100.61 177.981 100.61 194.823C100.61 248.724 122.022 292.419 148.438 292.419C149.261 292.419 150.077 292.379 150.893 292.293V97.3603C150.077 97.274 149.261 97.219 148.438 97.219V97.2269Z" fill="#E42320"/>
</svg>
