<svg width="302" height="351" viewBox="0 0 302 351" fill="none" xmlns="http://www.w3.org/2000/svg">
<path d="M156.658 286.225C164.873 271.981 143.652 244.32 109.26 224.442C74.8677 204.564 40.3278 199.997 32.1129 214.241C23.8979 228.486 45.1186 256.147 79.5108 276.025C113.903 295.902 148.443 300.469 156.658 286.225Z" fill="white"/>
<path d="M91.3836 339.412C103.786 333.604 101.377 302.226 86.0039 269.326C70.6303 236.427 48.1134 214.465 35.711 220.273C23.3085 226.081 25.7172 257.46 41.0907 290.359C56.4643 323.259 78.9812 345.22 91.3836 339.412Z" fill="#E42320"/>
<path d="M57.7875 345.967C79.3072 345.967 96.7524 340.578 96.7524 333.93C96.7524 327.283 79.3072 321.894 57.7875 321.894C36.2678 321.894 18.8228 327.283 18.8228 333.93C18.8228 340.578 36.2678 345.967 57.7875 345.967Z" fill="white"/>
<path d="M221.035 276.021C255.428 256.143 276.648 228.482 268.433 214.238C260.218 199.994 225.678 204.561 191.286 224.438C156.894 244.316 135.673 271.977 143.888 286.222C152.103 300.466 186.643 295.899 221.035 276.021Z" fill="black"/>
<path d="M259.514 290.492C274.887 257.593 277.296 226.214 264.893 220.406C252.491 214.598 229.974 236.56 214.601 269.459C199.227 302.358 196.818 333.737 209.221 339.545C221.623 345.353 244.14 323.391 259.514 290.492Z" fill="#FF9900"/>
<path d="M169.647 59.1543H151.388V122.164H169.647V59.1543Z" fill="#001AFF"/>
<path d="M242.761 345.967C264.28 345.967 281.726 340.578 281.726 333.93C281.726 327.283 264.28 321.894 242.761 321.894C221.241 321.894 203.796 327.283 203.796 333.93C203.796 340.578 221.241 345.967 242.761 345.967Z" fill="black"/>
<path d="M151.38 59.1543H133.301V122.164H151.38V59.1543Z" fill="#FFEC00"/>
<path d="M123.278 44.1812C123.278 68.5762 135.905 88.3624 151.482 88.3624V0C135.905 0 123.278 19.7783 123.278 44.1812Z" fill="#E42320"/>
<path d="M151.474 0V88.3545C167.051 88.3545 179.678 68.5762 179.678 44.1733C179.678 19.7704 167.051 0 151.474 0Z" fill="white"/>
<path d="M293.012 128.421C282.917 115.992 257.882 103.39 227.215 96.6223C196.549 89.862 168.721 90.8042 154.611 97.9021C153.552 97.6509 152.486 97.4703 151.411 97.3604V292.293C176.69 289.686 196.792 247.044 196.792 194.823C196.792 177.219 194.509 160.715 190.509 146.457C198.211 149.244 206.611 151.694 215.49 153.649C235.074 157.967 253.506 159.145 267.937 157.582C263.992 169.705 260.635 184.608 258.462 200.876C252.753 243.574 257.317 279.503 268.666 281.128C280.008 282.753 293.835 249.462 299.545 206.765C304.588 169.03 301.608 136.587 293.012 128.429V128.421Z" fill="#001AFF"/>
<path d="M148.956 97.2269C148.289 97.2269 147.631 97.2583 146.972 97.3132C132.517 90.7571 105.403 90.0583 75.6069 96.6223C44.9401 103.383 19.897 115.984 9.8107 128.421C1.2146 136.579 -1.76587 169.022 3.27729 206.757C8.98711 249.454 22.8068 282.745 34.1558 281.12C45.497 279.495 50.0696 243.566 44.3598 200.869C42.1872 184.6 38.8304 169.705 34.8853 157.575C49.3245 159.137 67.7481 157.959 87.3325 153.641C94.1639 152.133 100.721 150.335 106.893 148.317C103.215 162.144 101.129 177.981 101.129 194.823C101.129 248.724 122.54 292.419 148.956 292.419C149.78 292.419 150.595 292.379 151.411 292.293V97.3603C150.595 97.274 149.78 97.219 148.956 97.219V97.2269Z" fill="#FF9900"/>
</svg>
