<?xml version="1.0" encoding="UTF-8"?>
<svg id="_Слой_1" data-name="Слой 1" xmlns="http://www.w3.org/2000/svg" viewBox="0 0 645.92 230.73">
  <defs>
    <style>
      .cls-1 {
        fill: none;
        stroke: #fff;
        stroke-miterlimit: 10;
      }
    </style>
  </defs>
  <polyline class="cls-1" points="0 131.5 48.88 131.5 55.67 79.63 59.25 189.63 72.44 38.75 75.59 159.41 80.83 102.69 83.98 206.58 100.74 31.41 104.95 144.74 118.57 58.66 117.52 192.96 125.9 97.45 135.34 212.87 137.43 29.31 151.07 173.04 163.65 73.46 165.74 203.44 173.08 131.5 225.49 131.5 230.06 104.67 233.88 173.04 247.51 62.97 249.6 209.73 265.33 23.14 271.2 160.12 278.96 109.1 287.34 230.69 296.24 82.31 299.92 178.28 303.07 131.5 359.67 131.5 368.06 62.97 375.84 195.89 388.36 25.07 393.22 160.46 404.46 75.16 412.08 229.65 424.66 45.15 424.66 160.46 434.1 131.5 478.12 131.5 485.84 98.41 494.78 192.31 503.72 54.59 509.09 225.4 516.25 107.35 525.19 161.01 534.13 78.73 542.18 203.94 555.6 .03 563.64 175.32 580.64 81.42 583.32 185.16 592.26 131.5 645.92 131.5"/>
</svg>