<svg width="372" height="247" viewBox="0 0 372 247" fill="none" xmlns="http://www.w3.org/2000/svg">
<path d="M259.178 63.9707L191.604 82.5102L9.25342 88.0732L96.2631 67.6794L259.178 63.9707Z" fill="#001AFF"/>
<path d="M96.2627 67.6795L124.303 7.42133L269.36 0L259.177 63.9708L96.2627 67.6795Z" fill="#E42320"/>
<path d="M96.9846 183.518C100.511 155.405 86.616 130.507 65.95 127.907C45.284 125.306 25.6725 145.989 22.1464 174.102C18.6204 202.215 32.515 227.113 53.181 229.713C73.847 232.313 93.4585 211.631 96.9846 183.518Z" fill="black"/>
<path d="M213.695 159.243C217.221 131.13 207.159 106.714 191.221 104.709C175.283 102.703 159.505 123.868 155.979 151.981C152.453 180.094 162.514 204.51 178.452 206.515C194.39 208.521 210.169 187.356 213.695 159.243Z" fill="black"/>
<path d="M9.25342 88.0733L13.5695 162.485L175.871 171.511L191.604 82.5103L9.25342 88.0733Z" fill="#E42320"/>
<path d="M345.262 16.6891L365.628 83.4375L361.925 148.335L175.871 171.511L191.604 82.5103L259.178 63.9708L269.361 0L345.262 16.6891Z" fill="#001AFF"/>
<path d="M265.858 195.92C269.384 167.807 255.489 142.909 234.823 140.309C214.157 137.709 194.546 158.391 191.02 186.504C187.494 214.617 201.388 239.516 222.054 242.116C242.72 244.716 262.332 224.033 265.858 195.92Z" fill="black"/>
<path d="M366.431 168.45C369.507 143.93 360.522 122.609 346.364 120.827C332.206 119.046 318.236 137.479 315.16 161.999C312.085 186.519 321.069 207.84 335.227 209.621C349.386 211.402 363.356 192.969 366.431 168.45Z" fill="black"/>
<path d="M30.264 140.882C36.362 140.882 41.3054 133.682 41.3054 124.8C41.3054 115.917 36.362 108.717 30.264 108.717C24.166 108.717 19.2227 115.917 19.2227 124.8C19.2227 133.682 24.166 140.882 30.264 140.882Z" fill="white"/>
<path d="M142.537 145.744C149.078 145.744 154.381 138.018 154.381 128.488C154.381 118.958 149.078 111.233 142.537 111.233C135.995 111.233 130.692 118.958 130.692 128.488C130.692 138.018 135.995 145.744 142.537 145.744Z" fill="white"/>
<path d="M99.8745 67.628L126.277 14.3038L255.755 9.18848L247.661 64.2165L99.8745 67.628Z" fill="black"/>
<path d="M276.019 11.8511L268.53 63.0436L315.085 66.9583L309.875 17.7232L276.019 11.8511Z" fill="black"/>
<path d="M317.49 19.2925L325.829 68.5871L357.406 75.109L340.387 24.2731L317.49 19.2925Z" fill="black"/>
<path d="M1.5033 150.614L0 166.431L157.91 173.963L161.669 154.382L1.5033 150.614Z" fill="#001AFF"/>
<path d="M132.101 94.9202V104.37L161.399 103.871V92.9312L132.101 94.9202Z" fill="#001AFF"/>
<path d="M18.3759 95.031L17.4502 102.436L41.3369 103.546L41.9026 95.031H18.3759Z" fill="#001AFF"/>
<path d="M58.6528 114.383L59.088 136.29L108.958 136.73L110.707 113.947L58.6528 114.383Z" fill="white"/>
<path d="M62.8064 118L63.0279 132.463H67.9176L65.9159 124.007L71.0271 131.571H73.4719L73.2504 118H69.9154V123.559L65.0297 118H62.8064Z" fill="black"/>
<path d="M76.269 118.151L76.4431 133.025L80.3359 131.785L79.0976 117.62L76.269 118.151Z" fill="black"/>
<path d="M82.1001 118.682L84.9287 131.785H89.3516L93.0624 119.038L88.9955 118.682L87.2588 127.193L84.7546 118.329L82.1001 118.682Z" fill="black"/>
<path d="M93.3274 131.753L97.501 118.218H102.47L103.862 131.357L100.88 131.753L100.484 128.568L97.9006 128.37L96.1125 131.753H93.3274Z" fill="black"/>
<path d="M99.0912 122.315L98.4385 125.057L100.191 125.584" fill="white"/>
</svg>
