<svg width="413" height="207" viewBox="0 0 413 207" fill="none" xmlns="http://www.w3.org/2000/svg">
<path d="M88.8693 162.292C91.9399 143.162 80.7492 125.457 63.8741 122.747C46.9991 120.038 30.83 133.35 27.7594 152.48C24.6889 171.611 35.8796 189.316 52.7547 192.025C69.6297 194.734 85.7988 181.423 88.8693 162.292Z" fill="black"/>
<path d="M9.33041 177.721C9.33041 177.721 -12.2841 133.261 10.5878 97.0145C13.278 92.7491 99.6541 64.0631 99.6541 64.0631L159.032 10.1056L281.757 0L340.086 6.41862L373.916 46.6731L397.247 49.0054L412.996 83.4272L411.246 120.181L399.579 134.765L211.092 181.748L9.32294 177.725L9.33041 177.721Z" fill="#0025FF"/>
<path d="M159.778 12.688L106.228 62.9547L263.578 63.8504L278.238 8.20239L159.778 12.688Z" fill="black"/>
<path d="M306.203 6.60132L324.747 53.7297L275.88 61.8015L285.917 9.22101L306.203 6.60132Z" fill="black"/>
<path d="M312.527 6.16479L331.728 54.1664L369.465 48.7106L337.616 7.91126L312.527 6.16479Z" fill="black"/>
<path d="M269.506 161.573C273.533 136.484 264.156 114.116 248.563 111.612C232.97 109.109 217.065 127.418 213.038 152.506C209.011 177.595 218.387 199.963 233.98 202.467C249.574 204.97 265.479 186.662 269.506 161.573Z" fill="black"/>
<path d="M403.778 133.375C406.848 114.244 400.142 97.2595 388.799 95.4383C377.456 93.6171 365.772 107.649 362.701 126.779C359.631 145.91 366.337 162.895 377.68 164.716C389.023 166.537 400.707 152.505 403.778 133.375Z" fill="black"/>
<path d="M134.268 126.794C134.268 126.794 141.044 93.2231 184.396 94.1858C199.533 94.5217 188.765 124.783 188.765 124.783L134.264 126.794H134.268Z" fill="white"/>
<path d="M21.1579 124.305C21.1579 124.305 20.0049 92.7304 15.9678 93.6633C9.36743 95.1859 1.71111 104.773 2.78568 121.958C2.9797 125.085 21.1579 124.305 21.1579 124.305Z" fill="white"/>
<path d="M34.6982 139.031L34.9109 155.036L99.7732 156.745L99.9859 141.165L34.6982 139.031Z" fill="white"/>
<path d="M42.9703 141.773L40.8547 152.931L44.6157 153.166L44.3807 148.703H47.7835V142.478L42.9703 141.773Z" fill="black"/>
<path d="M50.6042 141.657L50.0146 153.286H52.8354V148.233L54.8316 153.166L59.294 153.401L54.7122 147.412H56.5927L57.4135 141.893L50.6042 141.657Z" fill="black"/>
<path d="M60.3501 142.128L60.4695 153.286H62.9358L62.4657 142.008L60.3501 142.128Z" fill="black"/>
<path d="M65.4021 142.479V152.11L70.8011 152.931L71.8607 142.829L65.4021 142.479Z" fill="black"/>
<path d="M74.7971 142.949L73.3867 153.286L76.7933 153.051L76.5582 147.998L78.7894 153.051L82.5467 153.521L78.435 147.293L81.1363 145.766L80.7856 142.949H74.7971Z" fill="black"/>
<path d="M84.4233 153.166L85.0129 142.714L89.7104 142.829L92.8819 152.815H89.826L89.7104 149.289H87.8299L87.1247 153.636L84.4233 153.166Z" fill="black"/>
<path d="M66.8459 144.71L67.1632 149.376H68.6485L69.2829 145.24L66.8459 144.71Z" fill="white"/>
<path d="M51.8953 144.18V146.3L54.7614 145.453V143.65L51.8953 144.18Z" fill="white"/>
<path d="M44.2652 143.755L44.157 146.83L45.855 146.726L45.9595 144.393L44.2652 143.755Z" fill="white"/>
<path d="M87.0911 145.027V147.256L89.2145 147.36L88.3637 144.497L87.0911 145.027Z" fill="white"/>
<path d="M76.1738 144.393V145.77L78.8235 144.923L76.1738 144.393Z" fill="white"/>
<path d="M32.1201 108.938L71.9762 105.441L132.809 108.938L122.321 124.324L66.9392 131.526L30.0269 122.924C30.0269 122.924 26.5308 108.938 32.1238 108.938H32.1201Z" fill="#3C3C3B"/>
</svg>
