<svg width="2696" height="327" viewBox="0 0 2696 327" fill="none" xmlns="http://www.w3.org/2000/svg">
<path d="M1417.18 103.971L1349.6 122.51L1167.25 128.073L1254.26 107.679L1417.18 103.971Z" fill="#001AFF"/>
<path d="M1254.26 107.68L1282.3 47.4213L1427.36 40L1417.18 103.971L1254.26 107.68Z" fill="#E42320"/>
<path d="M1254.98 223.518C1258.51 195.405 1244.62 170.507 1223.95 167.907C1203.28 165.306 1183.67 185.989 1180.15 214.102C1176.62 242.215 1190.52 267.113 1211.18 269.713C1231.85 272.313 1251.46 251.631 1254.98 223.518Z" fill="black"/>
<path d="M1371.69 199.243C1375.22 171.13 1365.16 146.714 1349.22 144.709C1333.28 142.704 1317.5 163.868 1313.98 191.981C1310.45 220.095 1320.51 244.51 1336.45 246.516C1352.39 248.521 1368.17 227.356 1371.69 199.243Z" fill="black"/>
<path d="M1167.25 128.073L1171.57 202.485L1333.87 211.511L1349.6 122.51L1167.25 128.073Z" fill="#E42320"/>
<path d="M1503.26 56.6891L1523.63 123.437L1519.92 188.335L1333.87 211.511L1349.6 122.51L1417.18 103.971L1427.36 40L1503.26 56.6891Z" fill="#001AFF"/>
<path d="M1423.86 235.92C1427.38 207.807 1413.49 182.909 1392.82 180.309C1372.16 177.709 1352.55 198.391 1349.02 226.504C1345.49 254.617 1359.39 279.516 1380.05 282.116C1400.72 284.716 1420.33 264.033 1423.86 235.92Z" fill="black"/>
<path d="M1524.43 208.449C1527.51 183.93 1518.52 162.608 1504.36 160.827C1490.21 159.046 1476.24 177.479 1473.16 201.999C1470.09 226.518 1479.07 247.84 1493.23 249.621C1507.39 251.402 1521.36 232.969 1524.43 208.449Z" fill="black"/>
<path d="M1188.26 180.882C1194.36 180.882 1199.31 173.682 1199.31 164.8C1199.31 155.917 1194.36 148.717 1188.26 148.717C1182.17 148.717 1177.22 155.917 1177.22 164.8C1177.22 173.682 1182.17 180.882 1188.26 180.882Z" fill="white"/>
<path d="M1300.54 185.744C1307.08 185.744 1312.38 178.019 1312.38 168.489C1312.38 158.959 1307.08 151.233 1300.54 151.233C1294 151.233 1288.69 158.959 1288.69 168.489C1288.69 178.019 1294 185.744 1300.54 185.744Z" fill="white"/>
<path d="M1257.87 107.628L1284.28 54.3038L1413.76 49.1885L1405.66 104.216L1257.87 107.628Z" fill="black"/>
<path d="M1434.02 51.8511L1426.53 103.044L1473.08 106.958L1467.87 57.7232L1434.02 51.8511Z" fill="black"/>
<path d="M1475.49 59.2925L1483.83 108.587L1515.41 115.109L1498.39 64.2731L1475.49 59.2925Z" fill="black"/>
<path d="M1159.5 190.614L1158 206.431L1315.91 213.963L1319.67 194.382L1159.5 190.614Z" fill="#001AFF"/>
<path d="M1290.1 134.92V144.37L1319.4 143.871V132.931L1290.1 134.92Z" fill="#001AFF"/>
<path d="M1176.38 135.031L1175.45 142.436L1199.34 143.546L1199.9 135.031H1176.38Z" fill="#001AFF"/>
<path d="M1216.65 154.383L1217.09 176.29L1266.96 176.73L1268.71 153.947L1216.65 154.383Z" fill="white"/>
<path d="M1220.81 158L1221.03 172.462H1225.92L1223.92 164.007L1229.03 171.571H1231.47L1231.25 158H1227.92V163.559L1223.03 158H1220.81Z" fill="black"/>
<path d="M1234.27 158.151L1234.44 173.025L1238.34 171.785L1237.1 157.62L1234.27 158.151Z" fill="black"/>
<path d="M1240.1 158.682L1242.93 171.785H1247.35L1251.06 159.038L1247 158.682L1245.26 167.193L1242.75 158.329L1240.1 158.682Z" fill="black"/>
<path d="M1251.33 171.753L1255.5 158.218H1260.47L1261.86 171.357L1258.88 171.753L1258.48 168.568L1255.9 168.37L1254.11 171.753H1251.33Z" fill="black"/>
<path d="M1257.09 162.315L1256.44 165.057L1258.19 165.584" fill="white"/>
<path d="M1708.8 252.113C1729.97 252.113 1747.13 231.572 1747.13 206.233C1747.13 180.895 1729.97 160.354 1708.8 160.354C1687.64 160.354 1670.48 180.895 1670.48 206.233C1670.48 231.572 1687.64 252.113 1708.8 252.113Z" fill="black"/>
<path d="M1803.48 81.4654L1744.81 133.293L1653.19 158.981L1641 189.177L1805.29 187.374L1853.58 183.317L1855.38 229.285L2015.16 210.809L2038.62 167.091L2072.93 163.939L2065.71 126.983L2010.64 76.9581L1919.47 72L1803.48 81.4654Z" fill="#FE0000"/>
<path d="M1641 189.177L1646.24 209.609L1653.69 211.558L1658.65 227.669L1830.68 232.349L1853.58 183.317L1805.29 187.374L1641 189.177Z" fill="black"/>
<path d="M2072.93 163.939L2077 165.688L2074.83 178.16L2046.59 205.271L2015.16 210.809L2038.62 167.091L2072.93 163.939Z" fill="black"/>
<path d="M1864.57 258C1885.74 258 1902.9 237.459 1902.9 212.12C1902.9 186.781 1885.74 166.24 1864.57 166.24C1843.41 166.24 1826.25 186.781 1826.25 212.12C1826.25 237.459 1843.41 258 1864.57 258Z" fill="black"/>
<path d="M2035.29 231.502C2049.56 231.502 2061.13 214.806 2061.13 194.21C2061.13 173.614 2049.56 156.917 2035.29 156.917C2021.01 156.917 2009.44 173.614 2009.44 194.21C2009.44 214.806 2021.01 231.502 2035.29 231.502Z" fill="black"/>
<path d="M1915 76.3784L1898.92 127.904L1749.57 131.009L1804.8 83.885L1915 76.3784Z" fill="black"/>
<path d="M1924.85 79.2255L1910.59 135.411L1973.86 132.046L1956.49 77.6733L1924.85 79.2255Z" fill="black"/>
<path d="M1961.67 78.4492L1979.05 131.009L2023.65 127.125L1994.09 80.7808L1961.67 78.4492Z" fill="black"/>
<path d="M1997.98 81.0386L2029.61 126.61L2049.84 124.278L2048.8 113.922L2011.72 82.8517L1997.98 81.0386Z" fill="black"/>
<path d="M1651.42 163.085L1641 189.177L1680.59 188.814L1684.16 161.974L1651.42 163.085Z" fill="white"/>
<path d="M1758.11 163.302L1750.07 187.984L1804.15 187.462L1804.16 161.804L1758.11 163.302Z" fill="white"/>
<path d="M1677.75 194.142L1679.3 210.398L1746.83 211.466L1744.67 194.409L1677.75 194.142Z" fill="white"/>
<path d="M1683.19 169.189L1756.5 168.24L1750.16 187.987L1680.59 188.814L1683.19 169.189Z" fill="#3C3C3B"/>
<path d="M1682.27 196.826L1682.79 207.426L1688.16 205.383L1686.88 197.08L1682.27 196.826Z" fill="black"/>
<path d="M1689.13 196.406L1690.46 206.915L1696.99 207.044L1696.73 204.746H1692.25V201.937H1694.56V200.147L1692.13 199.89L1692 198.487L1695.45 198.741V196.955L1689.13 196.406Z" fill="black"/>
<path d="M1697.11 197.08L1699.55 206.661L1702.61 206.915L1704.28 197.592L1701.98 197.463L1701.08 203.468L1699.16 197.209L1697.11 197.08Z" fill="black"/>
<path d="M1706.07 197.846L1707.6 201.936L1707.35 208.067L1709.65 207.938L1709.39 202.061L1711.7 198.486L1709.78 197.72L1708.63 200.018L1707.86 197.208L1706.07 197.846Z" fill="black"/>
<path d="M1714.25 198.229L1711.57 208.067L1714 207.938L1714.25 205.383L1716.94 205.512V207.81H1719.63L1716.56 197.592L1714.25 198.229Z" fill="black"/>
<path d="M1718.99 197.846V199.635L1721.55 199.764L1721.16 207.684L1723.34 207.555L1723.59 200.018L1725.77 199.889L1726.02 197.463L1718.99 197.846Z" fill="black"/>
<path d="M1727.94 197.591L1726.41 208.192L1729.22 207.426L1728.71 204.234L1730.76 207.172H1733.06L1729.35 202.062L1733.19 198.486L1731.01 197.72L1729.09 199.381V196.697L1727.94 197.591Z" fill="black"/>
<path d="M1735.87 198.229L1734.98 208.067H1737.02L1737.15 205.383H1738.82L1740.1 208.192L1742.78 208.067L1738.43 198.104L1735.87 198.229Z" fill="black"/>
<path d="M1684.33 199.211V204.678L1686.16 203.766L1685.7 200.032L1684.33 199.211Z" fill="white"/>
<path d="M1715.35 200.669L1714.98 203.038H1716.62L1715.35 200.669Z" fill="white"/>
<path d="M1737.24 200.577L1736.97 203.221H1738.06L1737.24 200.577Z" fill="white"/>
<path d="M722.783 223.292C725.854 204.162 714.663 186.457 697.788 183.747C680.913 181.038 664.744 194.35 661.673 213.48C658.603 232.611 669.794 250.316 686.669 253.025C703.544 255.734 719.713 242.423 722.783 223.292Z" fill="black"/>
<path d="M643.244 238.721C643.244 238.721 621.63 194.261 644.502 158.015C647.192 153.749 733.568 125.063 733.568 125.063L792.946 71.1056L915.671 61L974 67.4186L1007.83 107.673L1031.16 110.005L1046.91 144.427L1045.16 181.181L1033.49 195.765L845.006 242.748L643.237 238.725L643.244 238.721Z" fill="#0025FF"/>
<path d="M793.692 73.6877L740.142 123.954L897.492 124.85L912.152 69.2021L793.692 73.6877Z" fill="black"/>
<path d="M940.117 67.6016L958.661 114.73L909.794 122.802L919.831 70.2213L940.117 67.6016Z" fill="black"/>
<path d="M946.441 67.1646L965.642 115.166L1003.38 109.71L971.53 68.911L946.441 67.1646Z" fill="black"/>
<path d="M903.42 222.573C907.447 197.484 898.07 175.116 882.477 172.612C866.884 170.109 850.979 188.418 846.952 213.506C842.925 238.595 852.301 260.963 867.894 263.467C883.488 265.97 899.393 247.662 903.42 222.573Z" fill="black"/>
<path d="M1037.69 194.374C1040.76 175.244 1034.06 158.259 1022.71 156.438C1011.37 154.617 999.686 168.649 996.615 187.779C993.545 206.91 1000.25 223.894 1011.59 225.716C1022.94 227.537 1034.62 213.505 1037.69 194.374Z" fill="black"/>
<path d="M768.182 187.794C768.182 187.794 774.958 154.223 818.31 155.186C833.447 155.522 822.679 185.783 822.679 185.783L768.178 187.794H768.182Z" fill="white"/>
<path d="M655.072 185.305C655.072 185.305 653.919 153.73 649.882 154.663C643.281 156.186 635.625 165.773 636.7 182.958C636.894 186.085 655.072 185.305 655.072 185.305Z" fill="white"/>
<path d="M668.612 200.03L668.825 216.036L733.687 217.745L733.9 202.165L668.612 200.03Z" fill="white"/>
<path d="M676.884 202.773L674.769 213.931L678.53 214.166L678.295 209.703H681.698V203.479L676.884 202.773Z" fill="black"/>
<path d="M684.518 202.657L683.929 214.285H686.749V209.233L688.746 214.166L693.208 214.401L688.626 208.412H690.507L691.328 202.892L684.518 202.657Z" fill="black"/>
<path d="M694.264 203.128L694.384 214.286H696.85L696.38 203.008L694.264 203.128Z" fill="black"/>
<path d="M699.316 203.479V213.11L704.715 213.931L705.775 203.829L699.316 203.479Z" fill="black"/>
<path d="M708.711 203.949L707.301 214.286L710.707 214.051L710.472 208.998L712.703 214.051L716.461 214.521L712.349 208.293L715.05 206.766L714.7 203.949H708.711Z" fill="black"/>
<path d="M718.337 214.167L718.927 203.714L723.624 203.83L726.796 213.816H723.74L723.624 210.289H721.744L721.039 214.637L718.337 214.167Z" fill="black"/>
<path d="M700.76 205.71L701.077 210.376H702.563L703.197 206.24L700.76 205.71Z" fill="white"/>
<path d="M685.809 205.18V207.3L688.675 206.453V204.65L685.809 205.18Z" fill="white"/>
<path d="M678.179 204.755L678.071 207.83L679.769 207.726L679.874 205.393L678.179 204.755Z" fill="white"/>
<path d="M721.005 206.028V208.256L723.129 208.36L722.278 205.498L721.005 206.028Z" fill="white"/>
<path d="M710.088 205.393V206.77L712.738 205.923L710.088 205.393Z" fill="white"/>
<path d="M666.034 169.938L705.89 166.441L766.723 169.938L756.235 185.324L700.853 192.526L663.941 183.924C663.941 183.924 660.445 169.938 666.038 169.938H666.034Z" fill="#3C3C3B"/>
<path d="M2276.78 217.292C2279.85 198.162 2268.66 180.457 2251.79 177.747C2234.91 175.038 2218.74 188.35 2215.67 207.48C2212.6 226.611 2223.79 244.316 2240.67 247.025C2257.54 249.734 2273.71 236.423 2276.78 217.292Z" fill="black"/>
<path d="M2197.24 232.721C2197.24 232.721 2175.63 188.261 2198.5 152.015C2201.19 147.749 2287.57 119.063 2287.57 119.063L2346.95 65.1056L2469.67 55L2528 61.4186L2561.83 101.673L2585.16 104.005L2600.91 138.427L2599.16 175.181L2587.49 189.765L2399.01 236.748L2197.24 232.725L2197.24 232.721Z" fill="#0025FF"/>
<path d="M2347.69 67.6877L2294.14 117.954L2451.49 118.85L2466.15 63.2021L2347.69 67.6877Z" fill="black"/>
<path d="M2494.12 61.6016L2512.66 108.73L2463.79 116.802L2473.83 64.2213L2494.12 61.6016Z" fill="black"/>
<path d="M2500.44 61.1646L2519.64 109.166L2557.38 103.71L2525.53 62.911L2500.44 61.1646Z" fill="black"/>
<path d="M2457.42 216.573C2461.45 191.484 2452.07 169.116 2436.48 166.612C2420.88 164.109 2404.98 182.418 2400.95 207.506C2396.92 232.595 2406.3 254.963 2421.89 257.467C2437.49 259.97 2453.39 241.662 2457.42 216.573Z" fill="black"/>
<path d="M2591.69 188.374C2594.76 169.244 2588.06 152.259 2576.71 150.438C2565.37 148.617 2553.69 162.649 2550.62 181.779C2547.54 200.91 2554.25 217.894 2565.59 219.716C2576.94 221.537 2588.62 207.505 2591.69 188.374Z" fill="black"/>
<path d="M2322.18 181.794C2322.18 181.794 2328.96 148.223 2372.31 149.186C2387.45 149.522 2376.68 179.783 2376.68 179.783L2322.18 181.794H2322.18Z" fill="white"/>
<path d="M2209.07 179.305C2209.07 179.305 2207.92 147.73 2203.88 148.663C2197.28 150.186 2189.63 159.773 2190.7 176.958C2190.89 180.085 2209.07 179.305 2209.07 179.305Z" fill="white"/>
<path d="M2222.61 194.03L2222.82 210.036L2287.69 211.745L2287.9 196.165L2222.61 194.03Z" fill="white"/>
<path d="M2230.88 196.773L2228.77 207.931L2232.53 208.166L2232.29 203.703H2235.7V197.479L2230.88 196.773Z" fill="black"/>
<path d="M2238.52 196.657L2237.93 208.285H2240.75V203.233L2242.75 208.166L2247.21 208.401L2242.63 202.412H2244.51L2245.33 196.892L2238.52 196.657Z" fill="black"/>
<path d="M2248.26 197.128L2248.38 208.286H2250.85L2250.38 197.008L2248.26 197.128Z" fill="black"/>
<path d="M2253.32 197.479V207.11L2258.72 207.931L2259.78 197.829L2253.32 197.479Z" fill="black"/>
<path d="M2262.71 197.949L2261.3 208.286L2264.71 208.051L2264.47 202.998L2266.7 208.051L2270.46 208.521L2266.35 202.293L2269.05 200.766L2268.7 197.949H2262.71Z" fill="black"/>
<path d="M2272.34 208.167L2272.93 197.714L2277.62 197.83L2280.8 207.816H2277.74L2277.62 204.289H2275.74L2275.04 208.637L2272.34 208.167Z" fill="black"/>
<path d="M2254.76 199.71L2255.08 204.376H2256.56L2257.2 200.24L2254.76 199.71Z" fill="white"/>
<path d="M2239.81 199.18V201.3L2242.68 200.453V198.65L2239.81 199.18Z" fill="white"/>
<path d="M2232.18 198.755L2232.07 201.83L2233.77 201.726L2233.87 199.393L2232.18 198.755Z" fill="white"/>
<path d="M2275.01 200.028V202.256L2277.13 202.36L2276.28 199.498L2275.01 200.028Z" fill="white"/>
<path d="M2264.09 199.393V200.77L2266.74 199.923L2264.09 199.393Z" fill="white"/>
<path d="M2220.03 163.938L2259.89 160.441L2320.72 163.938L2310.23 179.324L2254.85 186.526L2217.94 177.924C2217.94 177.924 2214.44 163.938 2220.04 163.938H2220.03Z" fill="#3C3C3B"/>
<path d="M154.804 258.113C175.972 258.113 193.131 237.572 193.131 212.233C193.131 186.895 175.972 166.354 154.804 166.354C133.636 166.354 116.476 186.895 116.476 212.233C116.476 237.572 133.636 258.113 154.804 258.113Z" fill="black"/>
<path d="M249.481 87.4654L190.806 139.293L99.1876 164.981L87 195.177L251.286 193.374L299.578 189.317L301.384 235.285L461.156 216.809L484.625 173.091L518.927 169.939L511.705 132.983L456.642 82.9581L365.471 78L249.481 87.4654Z" fill="#FE0000"/>
<path d="M87 195.177L92.2368 215.609L99.6865 217.558L104.648 233.669L276.676 238.349L299.578 189.317L251.286 193.374L87 195.177Z" fill="black"/>
<path d="M518.927 169.939L523 171.688L520.828 184.16L492.59 211.271L461.156 216.809L484.625 173.091L518.927 169.939Z" fill="black"/>
<path d="M310.575 264C331.742 264 348.902 243.459 348.902 218.12C348.902 192.781 331.742 172.24 310.575 172.24C289.407 172.24 272.247 192.781 272.247 218.12C272.247 243.459 289.407 264 310.575 264Z" fill="black"/>
<path d="M481.285 237.502C495.561 237.502 507.133 220.806 507.133 200.21C507.133 179.614 495.561 162.917 481.285 162.917C467.01 162.917 455.437 179.614 455.437 200.21C455.437 220.806 467.01 237.502 481.285 237.502Z" fill="black"/>
<path d="M361.001 82.3784L344.924 133.904L195.568 137.009L250.797 89.885L361.001 82.3784Z" fill="black"/>
<path d="M370.854 85.2255L356.593 141.411L419.862 138.046L402.489 83.6733L370.854 85.2255Z" fill="black"/>
<path d="M407.675 84.4492L425.048 137.009L469.648 133.125L440.087 86.7808L407.675 84.4492Z" fill="black"/>
<path d="M443.976 87.0386L475.611 132.61L495.835 130.278L494.797 119.922L457.718 88.8517L443.976 87.0386Z" fill="black"/>
<path d="M97.4159 169.085L87 195.177L126.587 194.814L130.16 167.974L97.4159 169.085Z" fill="white"/>
<path d="M204.111 169.302L196.074 193.984L250.149 193.462L250.163 167.804L204.111 169.302Z" fill="white"/>
<path d="M123.753 200.142L125.297 216.398L192.829 217.466L190.671 200.409L123.753 200.142Z" fill="white"/>
<path d="M129.19 175.189L202.498 174.24L196.159 193.987L126.587 194.814L129.19 175.189Z" fill="#3C3C3B"/>
<path d="M128.273 202.826L128.786 213.426L134.158 211.383L132.879 203.08L128.273 202.826Z" fill="black"/>
<path d="M135.133 202.406L136.463 212.915L142.986 213.044L142.728 210.746H138.252V207.937H140.556V206.147L138.126 205.89L137.997 204.487L141.452 204.741V202.955L135.133 202.406Z" fill="black"/>
<path d="M143.112 203.08L145.545 212.661L148.613 212.915L150.276 203.592L147.975 203.463L147.079 209.468L145.161 203.209L143.112 203.08Z" fill="black"/>
<path d="M152.068 203.846L153.602 207.936L153.348 214.067L155.649 213.938L155.394 208.061L157.695 204.486L155.778 203.72L154.627 206.018L153.86 203.208L152.068 203.846Z" fill="black"/>
<path d="M160.254 204.229L157.57 214.067L160 213.938L160.254 211.383L162.942 211.512V213.81H165.627L162.559 203.592L160.254 204.229Z" fill="black"/>
<path d="M164.989 203.846V205.635L167.548 205.764L167.164 213.684L169.336 213.555L169.594 206.018L171.77 205.889L172.024 203.463L164.989 203.846Z" fill="black"/>
<path d="M173.942 203.591L172.408 214.192L175.222 213.426L174.709 210.234L176.756 213.172H179.06L175.35 208.062L179.189 204.486L177.014 203.72L175.093 205.381V202.697L173.942 203.591Z" fill="black"/>
<path d="M181.874 204.229L180.978 214.067H183.024L183.153 211.383H184.816L186.096 214.192L188.784 214.067L184.433 204.104L181.874 204.229Z" fill="black"/>
<path d="M130.33 205.211V210.678L132.156 209.766L131.698 206.032L130.33 205.211Z" fill="white"/>
<path d="M161.347 206.669L160.981 209.038H162.623L161.347 206.669Z" fill="white"/>
<path d="M183.238 206.577L182.967 209.221H184.059L183.238 206.577Z" fill="white"/>
<rect x="40" y="4" width="61.125" height="30" rx="3" fill="#444444"/>
<rect x="40.5" y="4.5" width="60.125" height="29" rx="2.5" stroke="white" stroke-opacity="0.0980392"/>
<path d="M51.3438 16C51.2969 15.6042 51.1068 15.2969 50.7734 15.0781C50.4401 14.8594 50.0313 14.75 49.5469 14.75C49.1927 14.75 48.8828 14.8073 48.6172 14.9219C48.3542 15.0365 48.1484 15.194 48 15.3945C47.8542 15.5951 47.7813 15.8229 47.7813 16.0781C47.7813 16.2917 47.832 16.4753 47.9336 16.6289C48.0378 16.7799 48.1706 16.9062 48.332 17.0078C48.4935 17.1068 48.6628 17.1888 48.8398 17.2539C49.0169 17.3164 49.1797 17.3672 49.3281 17.4062L50.1406 17.625C50.349 17.6797 50.5807 17.7552 50.8359 17.8516C51.0938 17.9479 51.3398 18.0794 51.5742 18.2461C51.8112 18.4102 52.0065 18.6211 52.1602 18.8789C52.3138 19.1367 52.3906 19.4531 52.3906 19.8281C52.3906 20.2604 52.2773 20.651 52.0508 21C51.8268 21.349 51.4987 21.6263 51.0664 21.832C50.6367 22.0378 50.1146 22.1406 49.5 22.1406C48.9271 22.1406 48.431 22.0482 48.0117 21.8633C47.5951 21.6784 47.2669 21.4206 47.0273 21.0898C46.7904 20.7591 46.6563 20.375 46.625 19.9375H47.625C47.651 20.2396 47.7526 20.4896 47.9297 20.6875C48.1094 20.8828 48.3359 21.0286 48.6094 21.125C48.8854 21.2187 49.1823 21.2656 49.5 21.2656C49.8698 21.2656 50.2018 21.2057 50.4961 21.0859C50.7904 20.9635 51.0234 20.7943 51.1953 20.5781C51.3672 20.3594 51.4531 20.1042 51.4531 19.8125C51.4531 19.5469 51.3789 19.3307 51.2305 19.1641C51.082 18.9974 50.8867 18.862 50.6445 18.7578C50.4023 18.6536 50.1406 18.5625 49.8594 18.4844L48.875 18.2031C48.25 18.0234 47.7552 17.7669 47.3906 17.4336C47.026 17.1003 46.8438 16.6641 46.8438 16.125C46.8438 15.6771 46.9648 15.2865 47.207 14.9531C47.4518 14.6172 47.7799 14.3568 48.1914 14.1719C48.6055 13.9844 49.0677 13.8906 49.5781 13.8906C50.0938 13.8906 50.5521 13.9831 50.9531 14.168C51.3542 14.3503 51.6719 14.6003 51.9062 14.918C52.1432 15.2357 52.2682 15.5964 52.2813 16H51.3438ZM56.374 22.125C55.7959 22.125 55.2972 21.9974 54.8779 21.7422C54.4613 21.4844 54.1396 21.125 53.9131 20.6641C53.6891 20.2005 53.5771 19.6615 53.5771 19.0469C53.5771 18.4323 53.6891 17.8906 53.9131 17.4219C54.1396 16.9505 54.4548 16.5833 54.8584 16.3203C55.2646 16.0547 55.7386 15.9219 56.2803 15.9219C56.5928 15.9219 56.9014 15.974 57.2061 16.0781C57.5107 16.1823 57.7881 16.3516 58.0381 16.5859C58.2881 16.8177 58.4873 17.125 58.6357 17.5078C58.7842 17.8906 58.8584 18.362 58.8584 18.9219V19.3125H54.2334V18.5156H57.9209C57.9209 18.1771 57.8532 17.875 57.7178 17.6094C57.585 17.3437 57.3949 17.1341 57.1475 16.9805C56.9027 16.8268 56.6136 16.75 56.2803 16.75C55.9131 16.75 55.5954 16.8411 55.3271 17.0234C55.0615 17.2031 54.8571 17.4375 54.7139 17.7266C54.5706 18.0156 54.499 18.3255 54.499 18.6562V19.1875C54.499 19.6406 54.5771 20.0247 54.7334 20.3398C54.8923 20.6523 55.1123 20.8906 55.3936 21.0547C55.6748 21.2161 56.0016 21.2969 56.374 21.2969C56.6162 21.2969 56.835 21.263 57.0303 21.1953C57.2282 21.125 57.3988 21.0208 57.542 20.8828C57.6852 20.7422 57.7959 20.5677 57.874 20.3594L58.7646 20.6094C58.6709 20.9115 58.5133 21.1771 58.292 21.4062C58.0706 21.6328 57.7972 21.8099 57.4717 21.9375C57.1462 22.0625 56.7803 22.125 56.374 22.125ZM62.6982 22.125C62.1357 22.125 61.6514 21.9922 61.2451 21.7266C60.8389 21.4609 60.5264 21.0951 60.3076 20.6289C60.0889 20.1628 59.9795 19.6302 59.9795 19.0312C59.9795 18.4219 60.0915 17.8841 60.3154 17.418C60.542 16.9492 60.8571 16.5833 61.2607 16.3203C61.667 16.0547 62.141 15.9219 62.6826 15.9219C63.1045 15.9219 63.4847 16 63.8232 16.1562C64.1618 16.3125 64.4391 16.5312 64.6553 16.8125C64.8714 17.0937 65.0055 17.4219 65.0576 17.7969H64.1357C64.0654 17.5234 63.9092 17.2812 63.667 17.0703C63.4274 16.8568 63.1045 16.75 62.6982 16.75C62.3389 16.75 62.0238 16.8437 61.7529 17.0312C61.4847 17.2161 61.2751 17.4779 61.124 17.8164C60.9756 18.1523 60.9014 18.5469 60.9014 19C60.9014 19.4635 60.9743 19.8672 61.1201 20.2109C61.2686 20.5547 61.4769 20.8216 61.7451 21.0117C62.016 21.2018 62.3337 21.2969 62.6982 21.2969C62.9378 21.2969 63.1553 21.2552 63.3506 21.1719C63.5459 21.0885 63.7113 20.9688 63.8467 20.8125C63.9821 20.6562 64.0785 20.4687 64.1357 20.25H65.0576C65.0055 20.6042 64.8766 20.9232 64.6709 21.207C64.4678 21.4883 64.1982 21.7122 63.8623 21.8789C63.529 22.043 63.141 22.125 62.6982 22.125ZM69.0146 16V16.7812H65.9053V16H69.0146ZM66.8115 14.5625H67.7334V20.2812C67.7334 20.5417 67.7712 20.737 67.8467 20.8672C67.9248 20.9948 68.0238 21.0807 68.1436 21.125C68.266 21.1667 68.3949 21.1875 68.5303 21.1875C68.6318 21.1875 68.7152 21.1823 68.7803 21.1719C68.8454 21.1589 68.8975 21.1484 68.9365 21.1406L69.124 21.9687C69.0615 21.9922 68.9743 22.0156 68.8623 22.0391C68.7503 22.0651 68.6084 22.0781 68.4365 22.0781C68.1761 22.0781 67.9209 22.0221 67.6709 21.9102C67.4235 21.7982 67.2178 21.6276 67.0537 21.3984C66.8923 21.1693 66.8115 20.8802 66.8115 20.5312V14.5625ZM70.4014 22V16H71.3232V22H70.4014ZM70.8701 15C70.6904 15 70.5355 14.9388 70.4053 14.8164C70.2777 14.694 70.2139 14.5469 70.2139 14.375C70.2139 14.2031 70.2777 14.056 70.4053 13.9336C70.5355 13.8112 70.6904 13.75 70.8701 13.75C71.0498 13.75 71.2035 13.8112 71.3311 13.9336C71.4613 14.056 71.5264 14.2031 71.5264 14.375C71.5264 14.5469 71.4613 14.694 71.3311 14.8164C71.2035 14.9388 71.0498 15 70.8701 15ZM75.4492 22.125C74.9076 22.125 74.4323 21.9961 74.0234 21.7383C73.6172 21.4805 73.2995 21.1198 73.0703 20.6562C72.8438 20.1927 72.7305 19.651 72.7305 19.0312C72.7305 18.4062 72.8438 17.8607 73.0703 17.3945C73.2995 16.9284 73.6172 16.5664 74.0234 16.3086C74.4323 16.0508 74.9076 15.9219 75.4492 15.9219C75.9909 15.9219 76.4648 16.0508 76.8711 16.3086C77.2799 16.5664 77.5977 16.9284 77.8242 17.3945C78.0534 17.8607 78.168 18.4062 78.168 19.0312C78.168 19.651 78.0534 20.1927 77.8242 20.6562C77.5977 21.1198 77.2799 21.4805 76.8711 21.7383C76.4648 21.9961 75.9909 22.125 75.4492 22.125ZM75.4492 21.2969C75.8607 21.2969 76.1992 21.1914 76.4648 20.9805C76.7305 20.7695 76.9271 20.4922 77.0547 20.1484C77.1823 19.8047 77.2461 19.4323 77.2461 19.0312C77.2461 18.6302 77.1823 18.2565 77.0547 17.9102C76.9271 17.5638 76.7305 17.2839 76.4648 17.0703C76.1992 16.8568 75.8607 16.75 75.4492 16.75C75.0378 16.75 74.6992 16.8568 74.4336 17.0703C74.168 17.2839 73.9714 17.5638 73.8438 17.9102C73.7161 18.2565 73.6523 18.6302 73.6523 19.0312C73.6523 19.4323 73.7161 19.8047 73.8438 20.1484C73.9714 20.4922 74.168 20.7695 74.4336 20.9805C74.6992 21.1914 75.0378 21.2969 75.4492 21.2969ZM80.4971 18.3906V22H79.5752V16H80.4658V16.9375H80.5439C80.6846 16.6328 80.8981 16.388 81.1846 16.2031C81.471 16.0156 81.8408 15.9219 82.2939 15.9219C82.7002 15.9219 83.0557 16.0052 83.3604 16.1719C83.665 16.3359 83.902 16.5859 84.0713 16.9219C84.2406 17.2552 84.3252 17.6771 84.3252 18.1875V22H83.4033V18.25C83.4033 17.7786 83.2809 17.4115 83.0361 17.1484C82.7913 16.8828 82.4554 16.75 82.0283 16.75C81.734 16.75 81.471 16.8138 81.2393 16.9414C81.0101 17.069 80.8291 17.2552 80.6963 17.5C80.5635 17.7448 80.4971 18.0417 80.4971 18.3906ZM91.7441 22.1094C91.416 22.1042 91.0879 22.0417 90.7598 21.9219C90.4316 21.8021 90.1322 21.6003 89.8613 21.3164C89.5905 21.0299 89.373 20.6432 89.209 20.1562C89.0449 19.6667 88.9629 19.0521 88.9629 18.3125C88.9629 17.6042 89.0293 16.9766 89.1621 16.4297C89.2949 15.8802 89.4876 15.418 89.7402 15.043C89.9928 14.6654 90.2975 14.3789 90.6543 14.1836C91.0137 13.9883 91.4186 13.8906 91.8691 13.8906C92.3171 13.8906 92.7155 13.9805 93.0645 14.1602C93.416 14.3372 93.7025 14.5846 93.9238 14.9023C94.1452 15.2201 94.2884 15.5859 94.3535 16H93.4004C93.3118 15.6406 93.14 15.3424 92.8848 15.1055C92.6296 14.8685 92.291 14.75 91.8691 14.75C91.2493 14.75 90.7611 15.0195 90.4043 15.5586C90.0501 16.0977 89.8717 16.8542 89.8691 17.8281H89.9316C90.0775 17.6068 90.2507 17.418 90.4512 17.2617C90.6543 17.1029 90.8783 16.9805 91.123 16.8945C91.3678 16.8086 91.627 16.7656 91.9004 16.7656C92.3587 16.7656 92.778 16.8802 93.1582 17.1094C93.5384 17.3359 93.8431 17.6497 94.0723 18.0508C94.3014 18.4492 94.416 18.9062 94.416 19.4219C94.416 19.9167 94.3053 20.3698 94.084 20.7812C93.8626 21.1901 93.5514 21.5156 93.1504 21.7578C92.752 21.9974 92.2832 22.1146 91.7441 22.1094ZM91.7441 21.25C92.0723 21.25 92.3665 21.168 92.627 21.0039C92.89 20.8398 93.097 20.6198 93.248 20.3437C93.4017 20.0677 93.4785 19.7604 93.4785 19.4219C93.4785 19.0911 93.4043 18.7904 93.2559 18.5195C93.11 18.2461 92.9082 18.0286 92.6504 17.8672C92.3952 17.7057 92.1035 17.625 91.7754 17.625C91.528 17.625 91.2975 17.6745 91.084 17.7734C90.8704 17.8698 90.6829 18.0026 90.5215 18.1719C90.3626 18.3411 90.2376 18.5352 90.1465 18.7539C90.0553 18.9701 90.0098 19.1979 90.0098 19.4375C90.0098 19.7552 90.084 20.0521 90.2324 20.3281C90.3835 20.6042 90.5892 20.8268 90.8496 20.9961C91.1126 21.1654 91.4108 21.25 91.7441 21.25Z" fill="white"/>
</svg>
